<?xml version="1.0" encoding="UTF-8" standalone="no"?><svg xmlns="http://www.w3.org/2000/svg" xmlns:xlink="http://www.w3.org/1999/xlink" contentScriptType="application/ecmascript" contentStyleType="text/css" height="93px" preserveAspectRatio="none" style="width:431px;height:93px;" version="1.1" viewBox="0 0 431 93" width="431px" zoomAndPan="magnify"><defs><filter height="300%" id="f1wgjbcqvs4uwq" width="300%" x="-1" y="-1"><feGaussianBlur result="blurOut" stdDeviation="2.0"/><feColorMatrix in="blurOut" result="blurOut2" type="matrix" values="0 0 0 0 0 0 0 0 0 0 0 0 0 0 0 0 0 0 .4 0"/><feOffset dx="4.0" dy="4.0" in="blurOut2" result="blurOut3"/><feBlend in="SourceGraphic" in2="blurOut3" mode="normal"/></filter></defs><g><!--MD5=[1b37e65ee89f4a9570036382ccdfd466]
entity RolesAPI--><rect fill="#FEFECE" filter="url(#f1wgjbcqvs4uwq)" height="36.2969" style="stroke: #A80036; stroke-width: 1.5;" width="152" x="268" y="46"/><rect fill="#FEFECE" height="5" style="stroke: #A80036; stroke-width: 1.5;" width="10" x="263" y="51"/><rect fill="#FEFECE" height="5" style="stroke: #A80036; stroke-width: 1.5;" width="10" x="263" y="72.2969"/><text fill="#000000" font-family="sans-serif" font-size="14" lengthAdjust="spacingAndGlyphs" textLength="132" x="278" y="68.9951">/api/1.1/user/roles/</text><!--MD5=[62b36487eb3886e110012d39c609da20]
entity foo-service--><rect fill="#FEFECE" filter="url(#f1wgjbcqvs4uwq)" height="36.2969" style="stroke: #A80036; stroke-width: 1.5;" width="96" x="6" y="46"/><rect fill="#FEFECE" height="5" style="stroke: #A80036; stroke-width: 1.5;" width="10" x="1" y="51"/><rect fill="#FEFECE" height="5" style="stroke: #A80036; stroke-width: 1.5;" width="10" x="1" y="72.2969"/><text fill="#000000" font-family="sans-serif" font-size="14" lengthAdjust="spacingAndGlyphs" textLength="76" x="16" y="68.9951">foo-service</text><!--MD5=[5eb6f39e4a46d5613d505a5c04031a47]
entity bar-service--><rect fill="#FEFECE" filter="url(#f1wgjbcqvs4uwq)" height="36.2969" style="stroke: #A80036; stroke-width: 1.5;" width="96" x="137" y="46"/><rect fill="#FEFECE" height="5" style="stroke: #A80036; stroke-width: 1.5;" width="10" x="132" y="51"/><rect fill="#FEFECE" height="5" style="stroke: #A80036; stroke-width: 1.5;" width="10" x="132" y="72.2969"/><text fill="#000000" font-family="sans-serif" font-size="14" lengthAdjust="spacingAndGlyphs" textLength="76" x="147" y="68.9951">bar-service</text><!--MD5=[7455610f207aed85cff8dbeda9170b03]
link foo-service to RolesAPI--><path d="M77.7115,45.8687 C93.6624,34.852 115.6903,21.822 137.5,16 C178.7232,4.9957 191.7258,7.3187 233.5,16 C259.2019,21.3412 286.262,32.9825 307.1709,43.4626 " fill="none" id="foo-service-&gt;RolesAPI" style="stroke: #A80036; stroke-width: 1.0;"/><polygon fill="#A80036" points="311.8062,45.8173,305.5939,38.1748,307.3484,43.5527,301.9706,45.3072,311.8062,45.8173" style="stroke: #A80036; stroke-width: 1.0;"/><!--MD5=[d7b800cf1e2889c8251096585c4fc98d]
link bar-service to RolesAPI--><path d="M233.1348,64 C242.969,64 252.8032,64 262.6375,64 " fill="none" id="bar-service-&gt;RolesAPI" style="stroke: #A80036; stroke-width: 1.0;"/><polygon fill="#A80036" points="267.7802,64,258.7802,60,262.7802,64,258.7802,68,267.7802,64" style="stroke: #A80036; stroke-width: 1.0;"/><!--MD5=[abfb057b604be35ae81ac206a1f774fd]
@startuml
[/api/1.1/user/roles/] as RolesAPI
[foo-service] -> RolesAPI
[bar-service] -> RolesAPI
@enduml

PlantUML version 1.2020.06(Sun Apr 05 12:38:32 GMT 2020)
(GPL source distribution)
Java Runtime: OpenJDK Runtime Environment
JVM: OpenJDK 64-Bit Server VM
Java Version: 14-ea+33
Operating System: Linux
Default Encoding: UTF-8
Language: en
Country: US
--></g></svg>