<?xml version="1.0" encoding="UTF-8" standalone="no"?><svg xmlns="http://www.w3.org/2000/svg" xmlns:xlink="http://www.w3.org/1999/xlink" contentScriptType="application/ecmascript" contentStyleType="text/css" height="151px" preserveAspectRatio="none" style="width:177px;height:151px;" version="1.1" viewBox="0 0 177 151" width="177px" zoomAndPan="magnify"><defs><filter height="300%" id="f1t87v57ztjd05" width="300%" x="-1" y="-1"><feGaussianBlur result="blurOut" stdDeviation="2.0"/><feColorMatrix in="blurOut" result="blurOut2" type="matrix" values="0 0 0 0 0 0 0 0 0 0 0 0 0 0 0 0 0 0 .4 0"/><feOffset dx="4.0" dy="4.0" in="blurOut2" result="blurOut3"/><feBlend in="SourceGraphic" in2="blurOut3" mode="normal"/></filter></defs><g><!--MD5=[770389ab9df153645bc6ef28055eb2b5]
entity A--><rect fill="#FEFECE" filter="url(#f1t87v57ztjd05)" height="36.2969" style="stroke: #A80036; stroke-width: 1.5;" width="29" x="6" y="8"/><rect fill="#FEFECE" height="5" style="stroke: #A80036; stroke-width: 1.5;" width="10" x="1" y="13"/><rect fill="#FEFECE" height="5" style="stroke: #A80036; stroke-width: 1.5;" width="10" x="1" y="34.2969"/><text fill="#000000" font-family="sans-serif" font-size="14" lengthAdjust="spacingAndGlyphs" textLength="9" x="16" y="30.9951">A</text><!--MD5=[b2d39259b6aeabc16b394deeb0238426]
entity B--><rect fill="#FEFECE" filter="url(#f1t87v57ztjd05)" height="36.2969" style="stroke: #A80036; stroke-width: 1.5;" width="30" x="70.5" y="8"/><rect fill="#FEFECE" height="5" style="stroke: #A80036; stroke-width: 1.5;" width="10" x="65.5" y="13"/><rect fill="#FEFECE" height="5" style="stroke: #A80036; stroke-width: 1.5;" width="10" x="65.5" y="34.2969"/><text fill="#000000" font-family="sans-serif" font-size="14" lengthAdjust="spacingAndGlyphs" textLength="10" x="80.5" y="30.9951">B</text><!--MD5=[16fab723be418f7eaf2ea4bd895a8e51]
entity C--><rect fill="#FEFECE" filter="url(#f1t87v57ztjd05)" height="36.2969" style="stroke: #A80036; stroke-width: 1.5;" width="30" x="135.5" y="8"/><rect fill="#FEFECE" height="5" style="stroke: #A80036; stroke-width: 1.5;" width="10" x="130.5" y="13"/><rect fill="#FEFECE" height="5" style="stroke: #A80036; stroke-width: 1.5;" width="10" x="130.5" y="34.2969"/><text fill="#000000" font-family="sans-serif" font-size="14" lengthAdjust="spacingAndGlyphs" textLength="10" x="145.5" y="30.9951">C</text><!--MD5=[118f42602524ad482f02b27ef22fc383]
entity D--><rect fill="#FEFECE" filter="url(#f1t87v57ztjd05)" height="36.2969" style="stroke: #A80036; stroke-width: 1.5;" width="31" x="135" y="104"/><rect fill="#FEFECE" height="5" style="stroke: #A80036; stroke-width: 1.5;" width="10" x="130" y="109"/><rect fill="#FEFECE" height="5" style="stroke: #A80036; stroke-width: 1.5;" width="10" x="130" y="130.2969"/><text fill="#000000" font-family="sans-serif" font-size="14" lengthAdjust="spacingAndGlyphs" textLength="11" x="145" y="126.9951">D</text><!--MD5=[5e2eec62a50b26b6b0db6c12e4ee289c]
link A to B--><path d="M35.2266,26 C45.1489,26 55.0712,26 64.9936,26 " fill="none" id="A-&gt;B" style="stroke: #A80036; stroke-width: 1.0;"/><polygon fill="#A80036" points="70.1823,26,61.1823,22,65.1823,26,61.1823,30,70.1823,26" style="stroke: #A80036; stroke-width: 1.0;"/><!--MD5=[cd25d8247324207f828a4db9f58ed69d]
link B to C--><path d="M100.7344,26 C110.5565,26 120.3786,26 130.2007,26 " fill="none" id="B-&gt;C" style="stroke: #A80036; stroke-width: 1.0; stroke-dasharray: 7.0,7.0;"/><polygon fill="#A80036" points="135.337,26,126.337,22,130.337,26,126.337,30,135.337,26" style="stroke: #A80036; stroke-width: 1.0;"/><!--MD5=[95ca888c4bb7ed1df160562281720a5c]
link C to D--><path d="M150.5,44.0569 C150.5,59.5126 150.5,81.8647 150.5,98.6731 " fill="none" id="C-&gt;D" style="stroke: #A80036; stroke-width: 1.0;"/><polygon fill="#A80036" points="150.5,103.6977,154.5,94.6977,150.5,98.6977,146.5,94.6977,150.5,103.6977" style="stroke: #A80036; stroke-width: 1.0;"/><!--MD5=[b8c9c543ba88920200329ee51aef1d9a]
@startuml
[A] -> [B]
[B] .> [C]
[C] - -> [D]
@enduml

PlantUML version 1.2020.06(Sun Apr 05 12:38:32 GMT 2020)
(GPL source distribution)
Java Runtime: OpenJDK Runtime Environment
JVM: OpenJDK 64-Bit Server VM
Java Version: 14-ea+33
Operating System: Linux
Default Encoding: UTF-8
Language: en
Country: US
--></g></svg>