<?xml version="1.0" encoding="UTF-8" standalone="no"?><svg xmlns="http://www.w3.org/2000/svg" xmlns:xlink="http://www.w3.org/1999/xlink" contentScriptType="application/ecmascript" contentStyleType="text/css" height="195px" preserveAspectRatio="none" style="width:378px;height:195px;" version="1.1" viewBox="0 0 378 195" width="378px" zoomAndPan="magnify"><defs><filter height="300%" id="fjpbtjpj1mr4b" width="300%" x="-1" y="-1"><feGaussianBlur result="blurOut" stdDeviation="2.0"/><feColorMatrix in="blurOut" result="blurOut2" type="matrix" values="0 0 0 0 0 0 0 0 0 0 0 0 0 0 0 0 0 0 .4 0"/><feOffset dx="4.0" dy="4.0" in="blurOut2" result="blurOut3"/><feBlend in="SourceGraphic" in2="blurOut3" mode="normal"/></filter></defs><g><!--MD5=[fb97520b62ba04518e1874517745a826]
cluster Foo service--><polygon fill="#FFFFFF" filter="url(#fjpbtjpj1mr4b)" points="14,16,112,16,119,38.2969,356,38.2969,356,87,14,87,14,16" style="stroke: #000000; stroke-width: 1.5;"/><line style="stroke: #000000; stroke-width: 1.5;" x1="14" x2="119" y1="38.2969" y2="38.2969"/><text fill="#000000" font-family="sans-serif" font-size="14" font-weight="bold" lengthAdjust="spacingAndGlyphs" textLength="92" x="18" y="30.9951">Foo service</text><!--MD5=[907db7f2d9010a3dae5a2a787188efc9]
cluster foo-db--><path d="M77,107 C77,97 207,97 207,97 C207,97 337,97 337,107 L337,173 C337,183 207,183 207,183 C207,183 77,183 77,173 L77,107 " fill="#FFFFFF" filter="url(#fjpbtjpj1mr4b)" style="stroke: #000000; stroke-width: 1.5;"/><path d="M77,107 C77,117 207,117 207,117 C207,117 337,117 337,107 " fill="none" style="stroke: #000000; stroke-width: 1.5;"/><text fill="#000000" font-family="sans-serif" font-size="14" font-weight="bold" lengthAdjust="spacingAndGlyphs" textLength="52" x="181" y="131.9951">foo-db</text><!--MD5=[dbd36038b9e3e1a8408bdb83e237f53b]
entity foo.A--><rect fill="#FEFECE" filter="url(#fjpbtjpj1mr4b)" height="36.2969" style="stroke: #A80036; stroke-width: 1.5;" width="133" x="214.5" y="43"/><rect fill="#FEFECE" height="5" style="stroke: #A80036; stroke-width: 1.5;" width="10" x="209.5" y="48"/><rect fill="#FEFECE" height="5" style="stroke: #A80036; stroke-width: 1.5;" width="10" x="209.5" y="69.2969"/><text fill="#000000" font-family="sans-serif" font-size="14" lengthAdjust="spacingAndGlyphs" textLength="113" x="224.5" y="65.9951">First component</text><!--MD5=[8162403d8e72c3e7dc55e40c603905d6]
entity foo.B--><rect fill="#FEFECE" filter="url(#fjpbtjpj1mr4b)" height="36.2969" style="stroke: #A80036; stroke-width: 1.5;" width="157" x="22.5" y="43"/><rect fill="#FEFECE" height="5" style="stroke: #A80036; stroke-width: 1.5;" width="10" x="17.5" y="48"/><rect fill="#FEFECE" height="5" style="stroke: #A80036; stroke-width: 1.5;" width="10" x="17.5" y="69.2969"/><text fill="#000000" font-family="sans-serif" font-size="14" lengthAdjust="spacingAndGlyphs" textLength="137" x="32.5" y="65.9951">Second component</text><!--MD5=[8b89304651bceae3efeb839b55f554e2]
entity foo.table.A--><rect fill="#FEFECE" filter="url(#fjpbtjpj1mr4b)" height="36.2969" style="stroke: #A80036; stroke-width: 1.5;" width="97" x="232.5" y="139"/><rect fill="#FEFECE" height="5" style="stroke: #A80036; stroke-width: 1.5;" width="10" x="227.5" y="144"/><rect fill="#FEFECE" height="5" style="stroke: #A80036; stroke-width: 1.5;" width="10" x="227.5" y="165.2969"/><text fill="#000000" font-family="sans-serif" font-size="14" lengthAdjust="spacingAndGlyphs" textLength="77" x="242.5" y="161.9951">some table</text><!--MD5=[64c0349afa1ced0290fa5aba6c66f314]
entity foo.table.B--><rect fill="#FEFECE" filter="url(#fjpbtjpj1mr4b)" height="36.2969" style="stroke: #A80036; stroke-width: 1.5;" width="112" x="85" y="139"/><rect fill="#FEFECE" height="5" style="stroke: #A80036; stroke-width: 1.5;" width="10" x="80" y="144"/><rect fill="#FEFECE" height="5" style="stroke: #A80036; stroke-width: 1.5;" width="10" x="80" y="165.2969"/><text fill="#000000" font-family="sans-serif" font-size="14" lengthAdjust="spacingAndGlyphs" textLength="92" x="95" y="161.9951">another table</text><!--MD5=[d5176f65a767962af07810a163afc6ea]
link foo.A to foo.table.A--><path d="M281,79.0569 C281,94.5126 281,116.8647 281,133.6731 " fill="none" id="foo.A-&gt;foo.table.A" style="stroke: #A80036; stroke-width: 1.0;"/><polygon fill="#A80036" points="281,138.6977,285,129.6977,281,133.6977,277,129.6977,281,138.6977" style="stroke: #A80036; stroke-width: 1.0;"/><!--MD5=[18d3cd3523975eaaf3a63930e35cf101]
@startuml
package "Foo service" {
    [First component] as foo.A
    [Second component] as foo.B
}

database "foo-db" {
    [some table] as foo.table.A
    [another table] as foo.table.B
}

foo.A - -> foo.table.A
@enduml

PlantUML version 1.2020.06(Sun Apr 05 12:38:32 GMT 2020)
(GPL source distribution)
Java Runtime: OpenJDK Runtime Environment
JVM: OpenJDK 64-Bit Server VM
Java Version: 14-ea+33
Operating System: Linux
Default Encoding: UTF-8
Language: en
Country: US
--></g></svg>