<?xml version="1.0" encoding="UTF-8" standalone="no"?><svg xmlns="http://www.w3.org/2000/svg" xmlns:xlink="http://www.w3.org/1999/xlink" contentScriptType="application/ecmascript" contentStyleType="text/css" height="71px" preserveAspectRatio="none" style="width:546px;height:71px;" version="1.1" viewBox="0 0 546 71" width="546px" zoomAndPan="magnify"><defs><filter height="300%" id="fgzimft8g14ur" width="300%" x="-1" y="-1"><feGaussianBlur result="blurOut" stdDeviation="2.0"/><feColorMatrix in="blurOut" result="blurOut2" type="matrix" values="0 0 0 0 0 0 0 0 0 0 0 0 0 0 0 0 0 0 .4 0"/><feOffset dx="4.0" dy="4.0" in="blurOut2" result="blurOut3"/><feBlend in="SourceGraphic" in2="blurOut3" mode="normal"/></filter></defs><g><!--MD5=[96f7e1299d4a43069e6ed32352fcac20]
entity HTTP--><ellipse cx="179.5" cy="28" fill="#FEFECE" filter="url(#fgzimft8g14ur)" rx="8" ry="8" style="stroke: #A80036; stroke-width: 2.0;"/><text fill="#000000" font-family="sans-serif" font-size="14" lengthAdjust="spacingAndGlyphs" textLength="37" x="161" y="57.9951">HTTP</text><path d="M6,15.5 L6,40.6328 A0,0 0 0 0 6,40.6328 L135,40.6328 A0,0 0 0 0 135,40.6328 L135,33.5 L170.1594,28 L135,25.5 L135,25.5 L125,15.5 L6,15.5 A0,0 0 0 0 6,15.5 " fill="#FBFB77" filter="url(#fgzimft8g14ur)" style="stroke: #A80036; stroke-width: 1.0;"/><path d="M125,15.5 L125,25.5 L135,25.5 L125,15.5 " fill="#FBFB77" style="stroke: #A80036; stroke-width: 1.0;"/><text fill="#000000" font-family="sans-serif" font-size="13" lengthAdjust="spacingAndGlyphs" textLength="108" x="12" y="32.5669">Web Service only</text><!--MD5=[cbd7cda55f2530e2efe43ec72c097853]
entity First Component--><rect fill="#FEFECE" filter="url(#fgzimft8g14ur)" height="36.2969" style="stroke: #A80036; stroke-width: 1.5;" width="135" x="224" y="10"/><rect fill="#FEFECE" height="5" style="stroke: #A80036; stroke-width: 1.5;" width="10" x="219" y="15"/><rect fill="#FEFECE" height="5" style="stroke: #A80036; stroke-width: 1.5;" width="10" x="219" y="36.2969"/><text fill="#000000" font-family="sans-serif" font-size="14" lengthAdjust="spacingAndGlyphs" textLength="115" x="234" y="32.9951">First Component</text><path d="M394.5,8 L394.5,24 L359.0781,28 L394.5,32 L394.5,48.2656 A0,0 0 0 0 394.5,48.2656 L534.5,48.2656 A0,0 0 0 0 534.5,48.2656 L534.5,18 L524.5,8 L394.5,8 A0,0 0 0 0 394.5,8 " fill="#FBFB77" filter="url(#fgzimft8g14ur)" style="stroke: #A80036; stroke-width: 1.0;"/><path d="M524.5,8 L524.5,18 L534.5,18 L524.5,8 " fill="#FBFB77" style="stroke: #A80036; stroke-width: 1.0;"/><text fill="#000000" font-family="sans-serif" font-size="13" lengthAdjust="spacingAndGlyphs" textLength="99" x="400.5" y="25.0669">A note can also</text><text fill="#000000" font-family="sans-serif" font-size="13" lengthAdjust="spacingAndGlyphs" textLength="119" x="400.5" y="40.1997">be on several lines</text><!--MD5=[46d996859f59e5baf77956ce93023cee]
link HTTP to First Component--><path d="M188.6875,28 C200.3342,28 211.981,28 223.6277,28 " fill="none" id="HTTP-First Component" style="stroke: #A80036; stroke-width: 1.0;"/><!--MD5=[735ff5ede5e6febe1ac01470c1f60247]
@startuml
note left of HTTP : Web Service only

note right of [First Component]
  A note can also
  be on several lines
end note

HTTP - [First Component]
@enduml

PlantUML version 1.2020.06(Sun Apr 05 12:38:32 GMT 2020)
(GPL source distribution)
Java Runtime: OpenJDK Runtime Environment
JVM: OpenJDK 64-Bit Server VM
Java Version: 14-ea+33
Operating System: Linux
Default Encoding: UTF-8
Language: en
Country: US
--></g></svg>