<?xml version="1.0" encoding="UTF-8" standalone="no"?><svg xmlns="http://www.w3.org/2000/svg" xmlns:xlink="http://www.w3.org/1999/xlink" contentScriptType="application/ecmascript" contentStyleType="text/css" height="549px" preserveAspectRatio="none" style="width:561px;height:549px;" version="1.1" viewBox="0 0 561 549" width="561px" zoomAndPan="magnify"><defs><filter height="300%" id="f1kdm0h7imsnd1" width="300%" x="-1" y="-1"><feGaussianBlur result="blurOut" stdDeviation="2.0"/><feColorMatrix in="blurOut" result="blurOut2" type="matrix" values="0 0 0 0 0 0 0 0 0 0 0 0 0 0 0 0 0 0 .4 0"/><feOffset dx="4.0" dy="4.0" in="blurOut2" result="blurOut3"/><feBlend in="SourceGraphic" in2="blurOut3" mode="normal"/></filter></defs><g><!--MD5=[e209b37fc91f378abaa2ddf468318055]
entity actor--><ellipse cx="49.5" cy="17.5" fill="#FEFECE" filter="url(#f1kdm0h7imsnd1)" rx="8" ry="8" style="stroke: #A80036; stroke-width: 1.5;"/><path d="M49.5,25.5 L49.5,52.5 M36.5,33.5 L62.5,33.5 M49.5,52.5 L36.5,67.5 M49.5,52.5 L62.5,67.5 " fill="none" filter="url(#f1kdm0h7imsnd1)" style="stroke: #A80036; stroke-width: 1.5;"/><text fill="#000000" font-family="sans-serif" font-size="14" lengthAdjust="spacingAndGlyphs" textLength="35" x="32" y="85.9951">actor</text><!--MD5=[3908db504f15eb564d5f0e12bd7273c1]
entity agent--><rect fill="#FEFECE" filter="url(#f1kdm0h7imsnd1)" height="36.2969" style="stroke: #A80036; stroke-width: 1.5;" width="60" x="102.5" y="30.5"/><text fill="#000000" font-family="sans-serif" font-size="14" lengthAdjust="spacingAndGlyphs" textLength="40" x="112.5" y="53.4951">agent</text><!--MD5=[ed13bbfe61d4f4be62c09eebe4db66d3]
entity artifact--><rect fill="#FEFECE" filter="url(#f1kdm0h7imsnd1)" height="39.2969" style="stroke: #000000; stroke-width: 1.5;" width="76" x="197.5" y="29"/><polygon fill="#FEFECE" points="256.5,34,256.5,48,268.5,48,268.5,40,262.5,34,256.5,34" style="stroke: #000000; stroke-width: 1.5;"/><line style="stroke: #000000; stroke-width: 1.5;" x1="262.5" x2="262.5" y1="34" y2="40"/><line style="stroke: #000000; stroke-width: 1.5;" x1="268.5" x2="262.5" y1="40" y2="40"/><text fill="#000000" font-family="sans-serif" font-size="14" lengthAdjust="spacingAndGlyphs" textLength="46" x="207.5" y="54.9951">artifact</text><!--MD5=[6cbf048fd2d5a055b0f2cbfd23391788]
entity boundary--><path d="M321,28.5 L321,52.5 M321,40.5 L338,40.5 " fill="none" filter="url(#f1kdm0h7imsnd1)" style="stroke: #A80036; stroke-width: 2.0;"/><ellipse cx="350" cy="40.5" fill="#FEFECE" filter="url(#f1kdm0h7imsnd1)" rx="12" ry="12" style="stroke: #A80036; stroke-width: 2.0;"/><text fill="#000000" font-family="sans-serif" font-size="14" lengthAdjust="spacingAndGlyphs" textLength="65" x="309" y="69.4951">boundary</text><!--MD5=[0568ea600d1c2ace8679ac75c80dfc89]
entity card--><rect fill="#FEFECE" filter="url(#f1kdm0h7imsnd1)" height="22.2969" style="stroke: #000000; stroke-width: 1.5;" width="50" x="409.5" y="37.5"/><text fill="#000000" font-family="sans-serif" font-size="14" lengthAdjust="spacingAndGlyphs" textLength="30" x="419.5" y="53.4951">card</text><!--MD5=[da456bc05ddb284180092693c9c3b3b1]
entity circle--><ellipse cx="49.5" cy="178" fill="#FEFECE" filter="url(#f1kdm0h7imsnd1)" rx="8" ry="8" style="stroke: #A80036; stroke-width: 2.0;"/><text fill="#000000" font-family="sans-serif" font-size="14" lengthAdjust="spacingAndGlyphs" textLength="36" x="31.5" y="207.9951">circle</text><!--MD5=[3a4d72efb1b53e1acbdd1189cccbc328]
entity cloud--><path d="M120.5949,164.0025 C122.9559,157.9034 128.6645,156.7045 132.7344,162.2158 C136.3758,154.321 140.616,153.3052 146.5803,160.0133 C150.8929,154.9926 156.6148,155.577 159.0918,162.0172 C163.6555,156.6672 168.9581,158.3916 171.5613,164.2067 C179.2778,166.4029 182.4459,173.3771 175.3015,179.2646 C181.2663,184.5768 181.0835,191.0086 173.105,194.2813 C170.5481,202.4294 165.4278,203.1932 159.2131,198.1266 C157.4015,205.1802 152.2965,205.2739 147.6711,200.9915 C142.5942,206.1223 135.6217,205.9871 133.3737,197.9255 C128.5728,203.9992 122.9492,200.7969 120.9313,195.0067 C112.4312,192.4799 111.7998,186.3327 117.0049,180.1772 C110.3642,174.2922 112.9472,166.7161 120.5949,164.0025 " fill="#FEFECE" style="stroke: #000000; stroke-width: 1.5;"/><text fill="#000000" font-family="sans-serif" font-size="14" lengthAdjust="spacingAndGlyphs" textLength="38" x="126.5" y="182.9951">cloud</text><!--MD5=[a5a7a1c563e7de0fee7f3171b646813b]
entity collections--><rect fill="#FEFECE" filter="url(#f1kdm0h7imsnd1)" height="32.2969" style="stroke: #000000; stroke-width: 1.5;" width="90" x="218.5" y="164"/><rect fill="#FEFECE" height="32.2969" style="stroke: #000000; stroke-width: 1.5;" width="90" x="214.5" y="160"/><text fill="#000000" font-family="sans-serif" font-size="14" lengthAdjust="spacingAndGlyphs" textLength="74" x="222.5" y="180.9951">collections</text><!--MD5=[5f175ec018c225c86e8e77149e6345d4]
entity component--><rect fill="#FEFECE" filter="url(#f1kdm0h7imsnd1)" height="36.2969" style="stroke: #A80036; stroke-width: 1.5;" width="100" x="343.5" y="160"/><rect fill="#FEFECE" height="5" style="stroke: #A80036; stroke-width: 1.5;" width="10" x="338.5" y="165"/><rect fill="#FEFECE" height="5" style="stroke: #A80036; stroke-width: 1.5;" width="10" x="338.5" y="186.2969"/><text fill="#000000" font-family="sans-serif" font-size="14" lengthAdjust="spacingAndGlyphs" textLength="80" x="353.5" y="182.9951">component</text><!--MD5=[0b4603c22bc0d9214baf3db11effa15f]
entity control--><ellipse cx="502.5" cy="170" fill="#FEFECE" filter="url(#f1kdm0h7imsnd1)" rx="12" ry="12" style="stroke: #A80036; stroke-width: 2.0;"/><polygon fill="#A80036" points="498.5,158,504.5,153,502.5,158,504.5,163,498.5,158" style="stroke: #A80036; stroke-width: 1.0;"/><text fill="#000000" font-family="sans-serif" font-size="14" lengthAdjust="spacingAndGlyphs" textLength="48" x="478.5" y="198.9951">control</text><!--MD5=[f50ff5e4cd64f259303fc83dba1819fc]
entity database--><path d="M7.5,282.5 C7.5,272.5 49.5,272.5 49.5,272.5 C49.5,272.5 91.5,272.5 91.5,282.5 L91.5,307.7969 C91.5,317.7969 49.5,317.7969 49.5,317.7969 C49.5,317.7969 7.5,317.7969 7.5,307.7969 L7.5,282.5 " fill="#FEFECE" filter="url(#f1kdm0h7imsnd1)" style="stroke: #000000; stroke-width: 1.5;"/><path d="M7.5,282.5 C7.5,292.5 49.5,292.5 49.5,292.5 C49.5,292.5 91.5,292.5 91.5,282.5 " fill="none" style="stroke: #000000; stroke-width: 1.5;"/><text fill="#000000" font-family="sans-serif" font-size="14" lengthAdjust="spacingAndGlyphs" textLength="64" x="17.5" y="309.4951">database</text><!--MD5=[fbcd1a1664252f7f7ddf883fed3c1e0a]
entity entity--><ellipse cx="145.5" cy="287" fill="#FEFECE" filter="url(#f1kdm0h7imsnd1)" rx="12" ry="12" style="stroke: #A80036; stroke-width: 2.0;"/><line style="stroke: #A80036; stroke-width: 2.0;" x1="133.5" x2="157.5" y1="301" y2="301"/><text fill="#000000" font-family="sans-serif" font-size="14" lengthAdjust="spacingAndGlyphs" textLength="38" x="126.5" y="315.9951">entity</text><!--MD5=[7edcefaa406c65155265f04249a95b70]
entity file--><polygon fill="#FEFECE" filter="url(#f1kdm0h7imsnd1)" points="200,277,200,313.2969,239,313.2969,239,287,229,277,200,277" style="stroke: #000000; stroke-width: 1.5;"/><path d="M229,277 L229,287 L239,287 " fill="#FEFECE" style="stroke: #000000; stroke-width: 1.5;"/><text fill="#000000" font-family="sans-serif" font-size="14" lengthAdjust="spacingAndGlyphs" textLength="19" x="210" y="299.9951">file</text><!--MD5=[18b72bf5d1838316b3d85261d2b42cce]
entity folder--><polygon fill="#FEFECE" filter="url(#f1kdm0h7imsnd1)" points="274,267,320,267,327,288,343,288,343,322.5938,274,322.5938,274,267" style="stroke: #000000; stroke-width: 1.5;"/><line style="stroke: #000000; stroke-width: 1.5;" x1="274" x2="327" y1="288" y2="288"/><text fill="#000000" font-family="sans-serif" font-size="14" lengthAdjust="spacingAndGlyphs" textLength="39" x="284" y="307.9951">folder</text><!--MD5=[7a641773cfca2682e51daa01eb969ffa]
entity frame--><rect fill="#FEFECE" filter="url(#f1kdm0h7imsnd1)" height="46.2969" style="stroke: #000000; stroke-width: 1.5;" width="79" x="378" y="272"/><path d="M404.3333,273 L404.3333,277 L397.3333,284 L378,284 " fill="none" style="stroke: #000000; stroke-width: 1.5;"/><text fill="#000000" font-family="sans-serif" font-size="14" lengthAdjust="spacingAndGlyphs" textLength="39" x="393" y="304.9951">frame</text><!--MD5=[ea4128e1b5db6200a10193b8015cde63]
entity interface--><ellipse cx="49.5" cy="412" fill="#FEFECE" filter="url(#f1kdm0h7imsnd1)" rx="8" ry="8" style="stroke: #A80036; stroke-width: 2.0;"/><text fill="#000000" font-family="sans-serif" font-size="14" lengthAdjust="spacingAndGlyphs" textLength="60" x="19.5" y="441.9951">interface</text><!--MD5=[0b70d51bdd028022f5101c089cfdd98e]
entity node--><polygon fill="#FEFECE" filter="url(#f1kdm0h7imsnd1)" points="122.5,399,132.5,389,198.5,389,198.5,425.2969,188.5,435.2969,122.5,435.2969,122.5,399" style="stroke: #000000; stroke-width: 1.5;"/><line style="stroke: #000000; stroke-width: 1.5;" x1="188.5" x2="197.5" y1="399" y2="390"/><line style="stroke: #000000; stroke-width: 1.5;" x1="122.5" x2="188.5" y1="399" y2="399"/><line style="stroke: #000000; stroke-width: 1.5;" x1="188.5" x2="188.5" y1="399" y2="435.2969"/><text fill="#000000" font-family="sans-serif" font-size="14" lengthAdjust="spacingAndGlyphs" textLength="36" x="137.5" y="421.9951">node</text><!--MD5=[18b4c220f17afa2fa1b7909f1259f27e]
entity package--><polygon fill="#FEFECE" filter="url(#f1kdm0h7imsnd1)" points="233.5,392.5,305.5,392.5,312.5,414.7969,329.5,414.7969,329.5,431.7969,233.5,431.7969,233.5,392.5" style="stroke: #000000; stroke-width: 1.5;"/><line style="stroke: #000000; stroke-width: 1.5;" x1="233.5" x2="312.5" y1="414.7969" y2="414.7969"/><text fill="#000000" font-family="sans-serif" font-size="14" font-weight="bold" lengthAdjust="spacingAndGlyphs" textLength="66" x="237.5" y="408.4951">package</text><!--MD5=[799e9543975076390d2a6ceafec8df6c]
entity queue--><path d="M370,399 L425,399 C430,399 430,412.1484 430,412.1484 C430,412.1484 430,425.2969 425,425.2969 L370,425.2969 C365,425.2969 365,412.1484 365,412.1484 C365,412.1484 365,399 370,399 " fill="#FEFECE" filter="url(#f1kdm0h7imsnd1)" style="stroke: #A80036; stroke-width: 1.5;"/><path d="M425,399 C420,399 420,412.1484 420,412.1484 C420,425.2969 425,425.2969 425,425.2969 " fill="none" style="stroke: #A80036; stroke-width: 1.5;"/><text fill="#000000" font-family="sans-serif" font-size="14" lengthAdjust="spacingAndGlyphs" textLength="45" x="370" y="416.9951">queue</text><!--MD5=[7267aa9592867b0c03d3cbda6e92e719]
entity rectangle--><rect fill="#FEFECE" filter="url(#f1kdm0h7imsnd1)" height="36.2969" style="stroke: #000000; stroke-width: 1.5;" width="85" x="465" y="394"/><text fill="#000000" font-family="sans-serif" font-size="14" lengthAdjust="spacingAndGlyphs" textLength="65" x="475" y="416.9951">rectangle</text><!--MD5=[f71e1929eceb486be132a5333dc4c68d]
entity stack--><rect fill="#FEFECE" filter="url(#f1kdm0h7imsnd1)" height="36.2969" style="stroke: none; stroke-width: 1.5;" width="57" x="21" y="501"/><path d="M6,501 L21,501 L21,537.2969 L78,537.2969 L78,501 L93,501 " fill="none" style="stroke: #A80036; stroke-width: 1.5;"/><text fill="#000000" font-family="sans-serif" font-size="14" lengthAdjust="spacingAndGlyphs" textLength="37" x="31" y="523.9951">stack</text><!--MD5=[a5a6ae0ba01c8a4589ab26bd33e87aad]
entity storage--><rect fill="#FEFECE" filter="url(#f1kdm0h7imsnd1)" height="36.2969" rx="35" ry="35" style="stroke: #000000; stroke-width: 1.5;" width="73" x="128" y="501"/><text fill="#000000" font-family="sans-serif" font-size="14" lengthAdjust="spacingAndGlyphs" textLength="53" x="138" y="523.9951">storage</text><ellipse cx="280.7193" cy="519.0236" fill="#FEFECE" filter="url(#f1kdm0h7imsnd1)" rx="44.7193" ry="14.5236" style="stroke: #A80036; stroke-width: 1.5;"/><text fill="#000000" font-family="sans-serif" font-size="14" lengthAdjust="spacingAndGlyphs" textLength="59" x="251.2193" y="523.6721">usecase</text><!--MD5=[403d5c14816e3fd6c34baff245aae996]
link actor to agent--><!--MD5=[64bb286cf7260b747f34aab12634a004]
link agent to artifact--><!--MD5=[00e5dfb8e68433482ac634f71ca4cc03]
link artifact to boundary--><!--MD5=[0a1997872cb7b5dc19307073964d47e6]
link boundary to card--><!--MD5=[451eb81b98c54e026694029caccf1bf4]
link actor to circle--><!--MD5=[a604b30785e17c085f23df1e9782fc11]
link circle to cloud--><!--MD5=[0b440645a936dd341138124ef929e183]
link cloud to collections--><!--MD5=[ee23a149a812653026017f1538146379]
link collections to component--><!--MD5=[4533821a253da4c88be5a6a338acd4e9]
link component to control--><!--MD5=[f1d61384cb55f8dc085df41d2fb2b0ee]
link circle to database--><!--MD5=[db09ec649a2042184b714bedb9633c9d]
link database to entity--><!--MD5=[59daddd05257271c9cd70517cc25aec2]
link entity to file--><!--MD5=[34c4ea2ec1a1e6d0a3a34a5ce0777fef]
link file to folder--><!--MD5=[0c6dffb2cca7298a41ee3788a177ce7f]
link folder to frame--><!--MD5=[0a726b5d1aedba642457648019243028]
link database to interface--><!--MD5=[4bc6ae854b5665c09b46a881b905e5ae]
link interface to node--><!--MD5=[25eee8668465b150de9b719034a4e11f]
link node to package--><!--MD5=[ee2bb58ff61a23681c57f939cb95f1e2]
link package to queue--><!--MD5=[5e09dbeb541d8095ed90cbe6e1c3bfee]
link queue to rectangle--><!--MD5=[98cb51ded5898223b9a8ecc493b93ea4]
link interface to stack--><!--MD5=[e89c2b0e13177e8e3d374c65ed5a32e2]
link stack to storage--><!--MD5=[3653f2d8d01dce9d85eaa536b92b1c92]
link storage to usecase--><!--MD5=[133a45b8b310a74deee319e6682a3ac7]
@startuml
actor actor
agent agent
artifact artifact
boundary boundary
card card
circle circle
cloud cloud
collections collections
component component
control control
database database
entity entity
file file
folder folder
frame frame
interface interface
node node
package package
queue queue
rectangle rectangle
stack stack
storage storage
usecase usecase
@enduml

PlantUML version 1.2020.06(Sun Apr 05 12:38:32 GMT 2020)
(GPL source distribution)
Java Runtime: OpenJDK Runtime Environment
JVM: OpenJDK 64-Bit Server VM
Java Version: 14-ea+33
Operating System: Linux
Default Encoding: UTF-8
Language: en
Country: US
--></g></svg>