<?xml version="1.0" encoding="UTF-8" standalone="no"?><svg xmlns="http://www.w3.org/2000/svg" xmlns:xlink="http://www.w3.org/1999/xlink" contentScriptType="application/ecmascript" contentStyleType="text/css" height="62px" preserveAspectRatio="none" style="width:348px;height:62px;" version="1.1" viewBox="0 0 348 62" width="348px" zoomAndPan="magnify"><defs><filter height="300%" id="f1se7m7epo9p21" width="300%" x="-1" y="-1"><feGaussianBlur result="blurOut" stdDeviation="2.0"/><feColorMatrix in="blurOut" result="blurOut2" type="matrix" values="0 0 0 0 0 0 0 0 0 0 0 0 0 0 0 0 0 0 .4 0"/><feOffset dx="4.0" dy="4.0" in="blurOut2" result="blurOut3"/><feBlend in="SourceGraphic" in2="blurOut3" mode="normal"/></filter></defs><g><!--MD5=[ab8011494b009f71eb7a101944338a8c]
entity MessageQueue--><path d="M229,8 L331,8 C336,8 336,29.2969 336,29.2969 C336,29.2969 336,50.5938 331,50.5938 L229,50.5938 C224,50.5938 224,29.2969 224,29.2969 C224,29.2969 224,8 229,8 " fill="#FEFECE" filter="url(#f1se7m7epo9p21)" style="stroke: #A80036; stroke-width: 1.5;"/><path d="M331,8 C326,8 326,29.2969 326,29.2969 C326,50.5938 331,50.5938 331,50.5938 " fill="none" style="stroke: #A80036; stroke-width: 1.5;"/><text fill="#000000" font-family="sans-serif" font-size="14" font-style="italic" lengthAdjust="spacingAndGlyphs" textLength="92" x="229" y="25.9951">«kafka topic»</text><text fill="#000000" font-family="sans-serif" font-size="14" lengthAdjust="spacingAndGlyphs" textLength="68" x="241" y="42.292">events-v1</text><!--MD5=[62b36487eb3886e110012d39c609da20]
entity foo-service--><rect fill="#FEFECE" filter="url(#f1se7m7epo9p21)" height="36.2969" style="stroke: #A80036; stroke-width: 1.5;" width="96" x="6" y="11.5"/><rect fill="#FEFECE" height="5" style="stroke: #A80036; stroke-width: 1.5;" width="10" x="1" y="16.5"/><rect fill="#FEFECE" height="5" style="stroke: #A80036; stroke-width: 1.5;" width="10" x="1" y="37.7969"/><text fill="#000000" font-family="sans-serif" font-size="14" lengthAdjust="spacingAndGlyphs" textLength="76" x="16" y="34.4951">foo-service</text><!--MD5=[35947f42d2088000e14ad8da4d794eca]
link foo-service to MessageQueue--><path d="M102.2055,29.5 C136.1843,29.5 181.9689,29.5 218.5667,29.5 " fill="none" id="foo-service-&gt;MessageQueue" style="stroke: #A80036; stroke-width: 1.0;"/><polygon fill="#A80036" points="223.8972,29.5,214.8972,25.5,218.8972,29.5,214.8972,33.5,223.8972,29.5" style="stroke: #A80036; stroke-width: 1.0;"/><text fill="#000000" font-family="sans-serif" font-size="13" lengthAdjust="spacingAndGlyphs" textLength="85" x="120.5" y="22.5669">publish event</text><!--MD5=[262eb2bd6b12557bf1652b36d3287640]
@startuml
queue "events-v1" <<kafka topic>> as MessageQueue
[foo-service] -> MessageQueue : publish event
@enduml

PlantUML version 1.2020.06(Sun Apr 05 12:38:32 GMT 2020)
(GPL source distribution)
Java Runtime: OpenJDK Runtime Environment
JVM: OpenJDK 64-Bit Server VM
Java Version: 14-ea+33
Operating System: Linux
Default Encoding: UTF-8
Language: en
Country: US
--></g></svg>