<?xml version="1.0" encoding="UTF-8" standalone="no"?>
<!DOCTYPE svg PUBLIC "-//W3C//DTD SVG 1.1//EN"
 "http://www.w3.org/Graphics/SVG/1.1/DTD/svg11.dtd">
<!-- Generated by graphviz version 2.50.0 (20211204.2007)
 -->
<!-- Title: G Pages: 1 -->
<svg width="601pt" height="204pt"
 viewBox="0.00 0.00 600.94 204.00" xmlns="http://www.w3.org/2000/svg" xmlns:xlink="http://www.w3.org/1999/xlink">
<g id="graph0" class="graph" transform="scale(1 1) rotate(0) translate(4 200)">
<title>G</title>
<polygon fill="white" stroke="transparent" points="-4,4 -4,-200 596.94,-200 596.94,4 -4,4"/>
<!-- client -->
<g id="node1" class="node">
<title>client</title>
<ellipse fill="none" stroke="black" cx="294.7" cy="-178" rx="30.59" ry="18"/>
<text text-anchor="middle" x="294.7" y="-174.3" font-family="Times,serif" font-size="14.00">client</text>
</g>
<!-- master A -->
<g id="node2" class="node">
<title>master A</title>
<ellipse fill="none" stroke="black" cx="294.7" cy="-105" rx="42.79" ry="18"/>
<text text-anchor="middle" x="294.7" y="-101.3" font-family="Times,serif" font-size="14.00">master A</text>
</g>
<!-- client&#45;&gt;master A -->
<g id="edge1" class="edge">
<title>client&#45;&gt;master A</title>
<path fill="none" stroke="black" d="M294.7,-159.81C294.7,-151.79 294.7,-142.05 294.7,-133.07"/>
<polygon fill="black" stroke="black" points="298.2,-133.03 294.7,-123.03 291.2,-133.03 298.2,-133.03"/>
</g>
<!-- worker A.6 -->
<g id="node3" class="node">
<title>worker A.6</title>
<ellipse fill="lightcoral" stroke="black" cx="50.7" cy="-18" rx="50.89" ry="18"/>
<text text-anchor="middle" x="50.7" y="-14.3" font-family="Times,serif" font-size="14.00">worker A.6</text>
</g>
<!-- master A&#45;&gt;worker A.6 -->
<g id="edge2" class="edge">
<title>master A&#45;&gt;worker A.6</title>
<path fill="none" stroke="black" d="M252.79,-101.13C215.66,-97.36 160.67,-88.7 116.7,-69 101.67,-62.27 86.87,-51.55 75.11,-41.76"/>
<polygon fill="red" stroke="black" points="77.35,-39.06 67.49,-35.19 72.78,-44.37 77.35,-39.06"/>
<text text-anchor="middle" x="170.7" y="-57.8" font-family="Times,serif" font-size="14.00">X &#45; request blocked</text>
</g>
<!-- worker A.7 -->
<g id="node4" class="node">
<title>worker A.7</title>
<ellipse fill="lightcoral" stroke="black" cx="175.7" cy="-18" rx="50.89" ry="18"/>
<text text-anchor="middle" x="175.7" y="-14.3" font-family="Times,serif" font-size="14.00">worker A.7</text>
</g>
<!-- master A&#45;&gt;worker A.7 -->
<g id="edge3" class="edge">
<title>master A&#45;&gt;worker A.7</title>
<path fill="none" stroke="black" d="M273.97,-89.19C255.12,-75.73 227.08,-55.71 205.78,-40.49"/>
<polygon fill="red" stroke="black" points="207.56,-37.46 197.39,-34.5 203.5,-43.16 207.56,-37.46"/>
<text text-anchor="middle" x="247.7" y="-57.8" font-family="Times,serif" font-size="14.00">X</text>
</g>
<!-- worker A.8 -->
<g id="node5" class="node">
<title>worker A.8</title>
<ellipse fill="lightcoral" stroke="black" cx="294.7" cy="-18" rx="50.89" ry="18"/>
<text text-anchor="middle" x="294.7" y="-14.3" font-family="Times,serif" font-size="14.00">worker A.8</text>
</g>
<!-- master A&#45;&gt;worker A.8 -->
<g id="edge4" class="edge">
<title>master A&#45;&gt;worker A.8</title>
<path fill="none" stroke="black" d="M294.7,-86.8C294.7,-75.16 294.7,-59.55 294.7,-46.24"/>
<polygon fill="red" stroke="black" points="298.2,-46.18 294.7,-36.18 291.2,-46.18 298.2,-46.18"/>
<text text-anchor="middle" x="299.7" y="-57.8" font-family="Times,serif" font-size="14.00">X</text>
</g>
<!-- worker A.9 -->
<g id="node6" class="node">
<title>worker A.9</title>
<ellipse fill="lightcoral" stroke="black" cx="413.7" cy="-18" rx="50.89" ry="18"/>
<text text-anchor="middle" x="413.7" y="-14.3" font-family="Times,serif" font-size="14.00">worker A.9</text>
</g>
<!-- master A&#45;&gt;worker A.9 -->
<g id="edge5" class="edge">
<title>master A&#45;&gt;worker A.9</title>
<path fill="none" stroke="black" d="M315.42,-89.19C334.27,-75.73 362.31,-55.71 383.62,-40.49"/>
<polygon fill="red" stroke="black" points="385.9,-43.16 392,-34.5 381.83,-37.46 385.9,-43.16"/>
<text text-anchor="middle" x="366.7" y="-57.8" font-family="Times,serif" font-size="14.00">X</text>
</g>
<!-- worker A.10 -->
<g id="node7" class="node">
<title>worker A.10</title>
<ellipse fill="lightcoral" stroke="black" cx="537.7" cy="-18" rx="55.49" ry="18"/>
<text text-anchor="middle" x="537.7" y="-14.3" font-family="Times,serif" font-size="14.00">worker A.10</text>
</g>
<!-- master A&#45;&gt;worker A.10 -->
<g id="edge6" class="edge">
<title>master A&#45;&gt;worker A.10</title>
<path fill="none" stroke="black" d="M326.46,-92.89C368.71,-78.11 443.65,-51.9 491.98,-34.99"/>
<polygon fill="red" stroke="black" points="493.28,-38.24 501.57,-31.64 490.97,-31.64 493.28,-38.24"/>
<text text-anchor="middle" x="436.7" y="-57.8" font-family="Times,serif" font-size="14.00">X</text>
</g>
</g>
</svg>
