<?xml version="1.0" encoding="UTF-8" standalone="no"?>
<!DOCTYPE svg PUBLIC "-//W3C//DTD SVG 1.1//EN"
 "http://www.w3.org/Graphics/SVG/1.1/DTD/svg11.dtd">
<!-- Generated by graphviz version 2.50.0 (20211204.2007)
 -->
<!-- Title: G Pages: 1 -->
<svg width="1190pt" height="204pt"
 viewBox="0.00 0.00 1189.94 204.00" xmlns="http://www.w3.org/2000/svg" xmlns:xlink="http://www.w3.org/1999/xlink">
<g id="graph0" class="graph" transform="scale(1 1) rotate(0) translate(4 200)">
<title>G</title>
<polygon fill="white" stroke="transparent" points="-4,4 -4,-200 1185.94,-200 1185.94,4 -4,4"/>
<!-- client -->
<g id="node1" class="node">
<title>client</title>
<ellipse fill="none" stroke="black" cx="579.7" cy="-178" rx="30.59" ry="18"/>
<text text-anchor="middle" x="579.7" y="-174.3" font-family="Times,serif" font-size="14.00">client</text>
</g>
<!-- master A -->
<g id="node2" class="node">
<title>master A</title>
<ellipse fill="none" stroke="black" cx="579.7" cy="-105" rx="42.79" ry="18"/>
<text text-anchor="middle" x="579.7" y="-101.3" font-family="Times,serif" font-size="14.00">master A</text>
</g>
<!-- client&#45;&gt;master A -->
<g id="edge1" class="edge">
<title>client&#45;&gt;master A</title>
<path fill="none" stroke="black" d="M579.7,-159.81C579.7,-151.79 579.7,-142.05 579.7,-133.07"/>
<polygon fill="black" stroke="black" points="583.2,-133.03 579.7,-123.03 576.2,-133.03 583.2,-133.03"/>
</g>
<!-- worker A.1 -->
<g id="node3" class="node">
<title>worker A.1</title>
<ellipse fill="none" stroke="black" cx="50.7" cy="-18" rx="50.89" ry="18"/>
<text text-anchor="middle" x="50.7" y="-14.3" font-family="Times,serif" font-size="14.00">worker A.1</text>
</g>
<!-- master A&#45;&gt;worker A.1 -->
<g id="edge2" class="edge">
<title>master A&#45;&gt;worker A.1</title>
<path fill="none" stroke="black" d="M538.12,-100.17C455.68,-92.11 265.95,-71.14 109.7,-36 105.66,-35.09 101.49,-34.07 97.32,-32.99"/>
<polygon fill="black" stroke="black" points="98.23,-29.6 87.66,-30.38 96.4,-36.36 98.23,-29.6"/>
</g>
<!-- worker A.2 -->
<g id="node4" class="node">
<title>worker A.2</title>
<ellipse fill="none" stroke="black" cx="169.7" cy="-18" rx="50.89" ry="18"/>
<text text-anchor="middle" x="169.7" y="-14.3" font-family="Times,serif" font-size="14.00">worker A.2</text>
</g>
<!-- master A&#45;&gt;worker A.2 -->
<g id="edge3" class="edge">
<title>master A&#45;&gt;worker A.2</title>
<path fill="none" stroke="black" d="M540.5,-97.58C475.37,-86.66 340.95,-62.99 228.7,-36 224.84,-35.07 220.86,-34.06 216.87,-33"/>
<polygon fill="black" stroke="black" points="217.59,-29.56 207.02,-30.3 215.74,-36.31 217.59,-29.56"/>
</g>
<!-- worker A.3 -->
<g id="node5" class="node">
<title>worker A.3</title>
<ellipse fill="none" stroke="black" cx="288.7" cy="-18" rx="50.89" ry="18"/>
<text text-anchor="middle" x="288.7" y="-14.3" font-family="Times,serif" font-size="14.00">worker A.3</text>
</g>
<!-- master A&#45;&gt;worker A.3 -->
<g id="edge4" class="edge">
<title>master A&#45;&gt;worker A.3</title>
<path fill="none" stroke="black" d="M545.46,-94C493.62,-78.86 395.04,-50.06 336.26,-32.89"/>
<polygon fill="black" stroke="black" points="337.06,-29.48 326.48,-30.04 335.09,-36.2 337.06,-29.48"/>
</g>
<!-- worker A.4 -->
<g id="node6" class="node">
<title>worker A.4</title>
<ellipse fill="none" stroke="black" cx="407.7" cy="-18" rx="50.89" ry="18"/>
<text text-anchor="middle" x="407.7" y="-14.3" font-family="Times,serif" font-size="14.00">worker A.4</text>
</g>
<!-- master A&#45;&gt;worker A.4 -->
<g id="edge5" class="edge">
<title>master A&#45;&gt;worker A.4</title>
<path fill="none" stroke="black" d="M552.82,-90.72C523.93,-76.44 477.77,-53.63 445.29,-37.58"/>
<polygon fill="black" stroke="black" points="446.61,-34.33 436.1,-33.04 443.51,-40.6 446.61,-34.33"/>
</g>
<!-- worker A.5 -->
<g id="node7" class="node">
<title>worker A.5</title>
<ellipse fill="none" stroke="black" cx="526.7" cy="-18" rx="50.89" ry="18"/>
<text text-anchor="middle" x="526.7" y="-14.3" font-family="Times,serif" font-size="14.00">worker A.5</text>
</g>
<!-- master A&#45;&gt;worker A.5 -->
<g id="edge6" class="edge">
<title>master A&#45;&gt;worker A.5</title>
<path fill="none" stroke="black" d="M569.22,-87.21C561.6,-74.98 551.15,-58.21 542.51,-44.36"/>
<polygon fill="black" stroke="black" points="545.41,-42.39 537.14,-35.76 539.47,-46.1 545.41,-42.39"/>
</g>
<!-- worker A.6 -->
<g id="node8" class="node">
<title>worker A.6</title>
<ellipse fill="lightcoral" stroke="black" cx="645.7" cy="-18" rx="50.89" ry="18"/>
<text text-anchor="middle" x="645.7" y="-14.3" font-family="Times,serif" font-size="14.00">worker A.6</text>
</g>
<!-- master A&#45;&gt;worker A.6 -->
<g id="edge7" class="edge">
<title>master A&#45;&gt;worker A.6</title>
<path fill="none" stroke="black" d="M592.42,-87.61C602.04,-75.23 615.4,-58.01 626.34,-43.92"/>
<polygon fill="red" stroke="black" points="629.42,-45.67 632.78,-35.63 623.89,-41.38 629.42,-45.67"/>
<text text-anchor="middle" x="670.7" y="-57.8" font-family="Times,serif" font-size="14.00">X &#45; request blocked</text>
</g>
<!-- worker A.7 -->
<g id="node9" class="node">
<title>worker A.7</title>
<ellipse fill="lightcoral" stroke="black" cx="764.7" cy="-18" rx="50.89" ry="18"/>
<text text-anchor="middle" x="764.7" y="-14.3" font-family="Times,serif" font-size="14.00">worker A.7</text>
</g>
<!-- master A&#45;&gt;worker A.7 -->
<g id="edge8" class="edge">
<title>master A&#45;&gt;worker A.7</title>
<path fill="none" stroke="black" d="M622.03,-101.97C653.71,-98.67 696.87,-90.25 728.7,-69 737.9,-62.85 745.55,-53.5 751.39,-44.55"/>
<polygon fill="red" stroke="black" points="754.47,-46.22 756.63,-35.85 748.47,-42.61 754.47,-46.22"/>
<text text-anchor="middle" x="749.7" y="-57.8" font-family="Times,serif" font-size="14.00">X</text>
</g>
<!-- worker A.8 -->
<g id="node10" class="node">
<title>worker A.8</title>
<ellipse fill="lightcoral" stroke="black" cx="883.7" cy="-18" rx="50.89" ry="18"/>
<text text-anchor="middle" x="883.7" y="-14.3" font-family="Times,serif" font-size="14.00">worker A.8</text>
</g>
<!-- master A&#45;&gt;worker A.8 -->
<g id="edge9" class="edge">
<title>master A&#45;&gt;worker A.8</title>
<path fill="none" stroke="black" d="M619.67,-98.38C656.29,-92.72 711.77,-82.84 758.7,-69 788.18,-60.3 820.37,-47.34 844.7,-36.8"/>
<polygon fill="red" stroke="black" points="846.19,-39.96 853.94,-32.74 843.38,-33.55 846.19,-39.96"/>
<text text-anchor="middle" x="806.7" y="-57.8" font-family="Times,serif" font-size="14.00">X</text>
</g>
<!-- worker A.9 -->
<g id="node11" class="node">
<title>worker A.9</title>
<ellipse fill="lightcoral" stroke="black" cx="1002.7" cy="-18" rx="50.89" ry="18"/>
<text text-anchor="middle" x="1002.7" y="-14.3" font-family="Times,serif" font-size="14.00">worker A.9</text>
</g>
<!-- master A&#45;&gt;worker A.9 -->
<g id="edge10" class="edge">
<title>master A&#45;&gt;worker A.9</title>
<path fill="none" stroke="black" d="M620.43,-99.28C667.65,-93.5 747.7,-82.77 815.7,-69 873.28,-57.34 887.02,-51.47 943.7,-36 947.46,-34.97 951.36,-33.89 955.28,-32.79"/>
<polygon fill="red" stroke="black" points="956.3,-36.14 964.97,-30.04 954.4,-29.4 956.3,-36.14"/>
<text text-anchor="middle" x="883.7" y="-57.8" font-family="Times,serif" font-size="14.00">X</text>
</g>
<!-- worker A.10 -->
<g id="node12" class="node">
<title>worker A.10</title>
<ellipse fill="lightcoral" stroke="black" cx="1126.7" cy="-18" rx="55.49" ry="18"/>
<text text-anchor="middle" x="1126.7" y="-14.3" font-family="Times,serif" font-size="14.00">worker A.10</text>
</g>
<!-- master A&#45;&gt;worker A.10 -->
<g id="edge11" class="edge">
<title>master A&#45;&gt;worker A.10</title>
<path fill="none" stroke="black" d="M621.35,-100.42C681.46,-95 795.94,-83.78 892.7,-69 968.78,-57.38 987.68,-53.22 1062.7,-36 1067.04,-35 1071.53,-33.92 1076.03,-32.8"/>
<polygon fill="red" stroke="black" points="1077,-36.16 1085.83,-30.3 1075.27,-29.38 1077,-36.16"/>
<text text-anchor="middle" x="986.7" y="-57.8" font-family="Times,serif" font-size="14.00">X</text>
</g>
</g>
</svg>
