<?xml version="1.0" encoding="UTF-8" standalone="no"?>
<!DOCTYPE svg PUBLIC "-//W3C//DTD SVG 1.1//EN"
 "http://www.w3.org/Graphics/SVG/1.1/DTD/svg11.dtd">
<!-- Generated by graphviz version 2.50.0 (20211204.2007)
 -->
<!-- Title: G Pages: 1 -->
<svg width="1180pt" height="188pt"
 viewBox="0.00 0.00 1180.39 188.00" xmlns="http://www.w3.org/2000/svg" xmlns:xlink="http://www.w3.org/1999/xlink">
<g id="graph0" class="graph" transform="scale(1 1) rotate(0) translate(4 184)">
<title>G</title>
<polygon fill="white" stroke="transparent" points="-4,4 -4,-184 1176.39,-184 1176.39,4 -4,4"/>
<!-- client -->
<g id="node1" class="node">
<title>client</title>
<ellipse fill="none" stroke="black" cx="526.7" cy="-162" rx="30.59" ry="18"/>
<text text-anchor="middle" x="526.7" y="-158.3" font-family="Times,serif" font-size="14.00">client</text>
</g>
<!-- master A -->
<g id="node2" class="node">
<title>master A</title>
<ellipse fill="none" stroke="black" cx="348.7" cy="-90" rx="42.79" ry="18"/>
<text text-anchor="middle" x="348.7" y="-86.3" font-family="Times,serif" font-size="14.00">master A</text>
</g>
<!-- client&#45;&gt;master A -->
<g id="edge1" class="edge">
<title>client&#45;&gt;master A</title>
<path fill="none" stroke="black" d="M501.95,-151.27C472.52,-139.69 423.03,-120.23 388.27,-106.56"/>
<polygon fill="black" stroke="black" points="389.47,-103.27 378.88,-102.87 386.91,-109.79 389.47,-103.27"/>
</g>
<!-- master B -->
<g id="node8" class="node">
<title>master B</title>
<ellipse fill="none" stroke="black" cx="823.7" cy="-90" rx="42.79" ry="18"/>
<text text-anchor="middle" x="823.7" y="-86.3" font-family="Times,serif" font-size="14.00">master B</text>
</g>
<!-- client&#45;&gt;master B -->
<g id="edge7" class="edge">
<title>client&#45;&gt;master B</title>
<path fill="none" stroke="black" d="M554.64,-154.41C605.66,-142.39 714.4,-116.76 776.89,-102.03"/>
<polygon fill="black" stroke="black" points="777.95,-105.38 786.88,-99.68 776.34,-98.56 777.95,-105.38"/>
</g>
<!-- worker A.1 -->
<g id="node3" class="node">
<title>worker A.1</title>
<ellipse fill="none" stroke="black" cx="50.7" cy="-18" rx="50.89" ry="18"/>
<text text-anchor="middle" x="50.7" y="-14.3" font-family="Times,serif" font-size="14.00">worker A.1</text>
</g>
<!-- master A&#45;&gt;worker A.1 -->
<g id="edge2" class="edge">
<title>master A&#45;&gt;worker A.1</title>
<path fill="none" stroke="black" d="M310.85,-81.37C263.59,-71.66 180.33,-53.99 109.7,-36 105.91,-35.04 102,-34 98.08,-32.93"/>
<polygon fill="black" stroke="black" points="98.94,-29.54 88.37,-30.23 97.07,-36.28 98.94,-29.54"/>
</g>
<!-- worker A.2 -->
<g id="node4" class="node">
<title>worker A.2</title>
<ellipse fill="none" stroke="black" cx="169.7" cy="-18" rx="50.89" ry="18"/>
<text text-anchor="middle" x="169.7" y="-14.3" font-family="Times,serif" font-size="14.00">worker A.2</text>
</g>
<!-- master A&#45;&gt;worker A.2 -->
<g id="edge3" class="edge">
<title>master A&#45;&gt;worker A.2</title>
<path fill="none" stroke="black" d="M318.33,-77.13C289.22,-65.74 245.01,-48.45 212.37,-35.69"/>
<polygon fill="black" stroke="black" points="213.23,-32.27 202.64,-31.88 210.68,-38.79 213.23,-32.27"/>
</g>
<!-- worker A.3 -->
<g id="node5" class="node">
<title>worker A.3</title>
<ellipse fill="none" stroke="black" cx="288.7" cy="-18" rx="50.89" ry="18"/>
<text text-anchor="middle" x="288.7" y="-14.3" font-family="Times,serif" font-size="14.00">worker A.3</text>
</g>
<!-- master A&#45;&gt;worker A.3 -->
<g id="edge4" class="edge">
<title>master A&#45;&gt;worker A.3</title>
<path fill="none" stroke="black" d="M334.78,-72.76C327.31,-64.06 317.96,-53.15 309.64,-43.43"/>
<polygon fill="black" stroke="black" points="312.12,-40.95 302.95,-35.63 306.8,-45.5 312.12,-40.95"/>
</g>
<!-- worker A.4 -->
<g id="node6" class="node">
<title>worker A.4</title>
<ellipse fill="none" stroke="black" cx="407.7" cy="-18" rx="50.89" ry="18"/>
<text text-anchor="middle" x="407.7" y="-14.3" font-family="Times,serif" font-size="14.00">worker A.4</text>
</g>
<!-- master A&#45;&gt;worker A.4 -->
<g id="edge5" class="edge">
<title>master A&#45;&gt;worker A.4</title>
<path fill="none" stroke="black" d="M362.38,-72.76C369.72,-64.06 378.91,-53.15 387.1,-43.43"/>
<polygon fill="black" stroke="black" points="389.91,-45.54 393.68,-35.63 384.55,-41.02 389.91,-45.54"/>
</g>
<!-- worker A.5 -->
<g id="node7" class="node">
<title>worker A.5</title>
<ellipse fill="none" stroke="black" cx="526.7" cy="-18" rx="50.89" ry="18"/>
<text text-anchor="middle" x="526.7" y="-14.3" font-family="Times,serif" font-size="14.00">worker A.5</text>
</g>
<!-- master A&#45;&gt;worker A.5 -->
<g id="edge6" class="edge">
<title>master A&#45;&gt;worker A.5</title>
<path fill="none" stroke="black" d="M378.89,-77.13C407.84,-65.74 451.8,-48.45 484.26,-35.69"/>
<polygon fill="black" stroke="black" points="485.91,-38.8 493.93,-31.88 483.35,-32.29 485.91,-38.8"/>
</g>
<!-- worker B.1 -->
<g id="node9" class="node">
<title>worker B.1</title>
<ellipse fill="none" stroke="black" cx="645.7" cy="-18" rx="50.89" ry="18"/>
<text text-anchor="middle" x="645.7" y="-14.3" font-family="Times,serif" font-size="14.00">worker B.1</text>
</g>
<!-- master B&#45;&gt;worker B.1 -->
<g id="edge8" class="edge">
<title>master B&#45;&gt;worker B.1</title>
<path fill="none" stroke="black" d="M793.5,-77.13C764.56,-65.74 720.59,-48.45 688.13,-35.69"/>
<polygon fill="black" stroke="black" points="689.04,-32.29 678.46,-31.88 686.48,-38.8 689.04,-32.29"/>
</g>
<!-- worker B.2 -->
<g id="node10" class="node">
<title>worker B.2</title>
<ellipse fill="none" stroke="black" cx="764.7" cy="-18" rx="50.89" ry="18"/>
<text text-anchor="middle" x="764.7" y="-14.3" font-family="Times,serif" font-size="14.00">worker B.2</text>
</g>
<!-- master B&#45;&gt;worker B.2 -->
<g id="edge9" class="edge">
<title>master B&#45;&gt;worker B.2</title>
<path fill="none" stroke="black" d="M810.01,-72.76C802.67,-64.06 793.48,-53.15 785.29,-43.43"/>
<polygon fill="black" stroke="black" points="787.84,-41.02 778.72,-35.63 782.48,-45.54 787.84,-41.02"/>
</g>
<!-- worker B.3 -->
<g id="node11" class="node">
<title>worker B.3</title>
<ellipse fill="none" stroke="black" cx="883.7" cy="-18" rx="50.89" ry="18"/>
<text text-anchor="middle" x="883.7" y="-14.3" font-family="Times,serif" font-size="14.00">worker B.3</text>
</g>
<!-- master B&#45;&gt;worker B.3 -->
<g id="edge10" class="edge">
<title>master B&#45;&gt;worker B.3</title>
<path fill="none" stroke="black" d="M837.61,-72.76C845.08,-64.06 854.43,-53.15 862.75,-43.43"/>
<polygon fill="black" stroke="black" points="865.59,-45.5 869.44,-35.63 860.27,-40.95 865.59,-45.5"/>
</g>
<!-- worker B.4 -->
<g id="node12" class="node">
<title>worker B.4</title>
<ellipse fill="none" stroke="black" cx="1002.7" cy="-18" rx="50.89" ry="18"/>
<text text-anchor="middle" x="1002.7" y="-14.3" font-family="Times,serif" font-size="14.00">worker B.4</text>
</g>
<!-- master B&#45;&gt;worker B.4 -->
<g id="edge11" class="edge">
<title>master B&#45;&gt;worker B.4</title>
<path fill="none" stroke="black" d="M854.06,-77.13C883.17,-65.74 927.38,-48.45 960.02,-35.69"/>
<polygon fill="black" stroke="black" points="961.71,-38.79 969.75,-31.88 959.16,-32.27 961.71,-38.79"/>
</g>
<!-- worker B.5 -->
<g id="node13" class="node">
<title>worker B.5</title>
<ellipse fill="none" stroke="black" cx="1121.7" cy="-18" rx="50.89" ry="18"/>
<text text-anchor="middle" x="1121.7" y="-14.3" font-family="Times,serif" font-size="14.00">worker B.5</text>
</g>
<!-- master B&#45;&gt;worker B.5 -->
<g id="edge12" class="edge">
<title>master B&#45;&gt;worker B.5</title>
<path fill="none" stroke="black" d="M861.54,-81.37C908.8,-71.66 992.06,-53.99 1062.7,-36 1066.48,-35.04 1070.39,-34 1074.31,-32.93"/>
<polygon fill="black" stroke="black" points="1075.32,-36.28 1084.02,-30.23 1073.45,-29.54 1075.32,-36.28"/>
</g>
</g>
</svg>
