<?xml version="1.0" encoding="UTF-8" standalone="no"?>
<!DOCTYPE svg PUBLIC "-//W3C//DTD SVG 1.1//EN"
 "http://www.w3.org/Graphics/SVG/1.1/DTD/svg11.dtd">
<!-- Generated by graphviz version 2.50.0 (20211204.2007)
 -->
<!-- Title: G Pages: 1 -->
<svg width="1190pt" height="188pt"
 viewBox="0.00 0.00 1189.94 188.00" xmlns="http://www.w3.org/2000/svg" xmlns:xlink="http://www.w3.org/1999/xlink">
<g id="graph0" class="graph" transform="scale(1 1) rotate(0) translate(4 184)">
<title>G</title>
<polygon fill="white" stroke="transparent" points="-4,4 -4,-184 1185.94,-184 1185.94,4 -4,4"/>
<!-- client -->
<g id="node1" class="node">
<title>client</title>
<ellipse fill="none" stroke="black" cx="585.7" cy="-162" rx="30.59" ry="18"/>
<text text-anchor="middle" x="585.7" y="-158.3" font-family="Times,serif" font-size="14.00">client</text>
</g>
<!-- master A -->
<g id="node2" class="node">
<title>master A</title>
<ellipse fill="none" stroke="black" cx="585.7" cy="-90" rx="42.79" ry="18"/>
<text text-anchor="middle" x="585.7" y="-86.3" font-family="Times,serif" font-size="14.00">master A</text>
</g>
<!-- client&#45;&gt;master A -->
<g id="edge1" class="edge">
<title>client&#45;&gt;master A</title>
<path fill="none" stroke="black" d="M585.7,-143.7C585.7,-135.98 585.7,-126.71 585.7,-118.11"/>
<polygon fill="black" stroke="black" points="589.2,-118.1 585.7,-108.1 582.2,-118.1 589.2,-118.1"/>
</g>
<!-- worker A.1 -->
<g id="node3" class="node">
<title>worker A.1</title>
<ellipse fill="none" stroke="black" cx="50.7" cy="-18" rx="50.89" ry="18"/>
<text text-anchor="middle" x="50.7" y="-14.3" font-family="Times,serif" font-size="14.00">worker A.1</text>
</g>
<!-- master A&#45;&gt;worker A.1 -->
<g id="edge2" class="edge">
<title>master A&#45;&gt;worker A.1</title>
<path fill="none" stroke="black" d="M543.3,-86.7C459.7,-81.63 267.93,-67.37 109.7,-36 105.58,-35.18 101.33,-34.22 97.09,-33.16"/>
<polygon fill="black" stroke="black" points="97.84,-29.74 87.28,-30.58 96.06,-36.51 97.84,-29.74"/>
</g>
<!-- worker A.2 -->
<g id="node4" class="node">
<title>worker A.2</title>
<ellipse fill="none" stroke="black" cx="169.7" cy="-18" rx="50.89" ry="18"/>
<text text-anchor="middle" x="169.7" y="-14.3" font-family="Times,serif" font-size="14.00">worker A.2</text>
</g>
<!-- master A&#45;&gt;worker A.2 -->
<g id="edge3" class="edge">
<title>master A&#45;&gt;worker A.2</title>
<path fill="none" stroke="black" d="M544.69,-84.71C477.96,-77.33 341.97,-60.61 228.7,-36 224.65,-35.12 220.48,-34.12 216.31,-33.05"/>
<polygon fill="black" stroke="black" points="217.21,-29.67 206.64,-30.46 215.4,-36.43 217.21,-29.67"/>
</g>
<!-- worker A.3 -->
<g id="node5" class="node">
<title>worker A.3</title>
<ellipse fill="none" stroke="black" cx="288.7" cy="-18" rx="50.89" ry="18"/>
<text text-anchor="middle" x="288.7" y="-14.3" font-family="Times,serif" font-size="14.00">worker A.3</text>
</g>
<!-- master A&#45;&gt;worker A.3 -->
<g id="edge4" class="edge">
<title>master A&#45;&gt;worker A.3</title>
<path fill="none" stroke="black" d="M548.01,-81.36C500.95,-71.64 418.04,-53.95 347.7,-36 343.91,-35.03 340,-34 336.08,-32.93"/>
<polygon fill="black" stroke="black" points="336.94,-29.54 326.37,-30.23 335.07,-36.28 336.94,-29.54"/>
</g>
<!-- worker A.4 -->
<g id="node6" class="node">
<title>worker A.4</title>
<ellipse fill="none" stroke="black" cx="407.7" cy="-18" rx="50.89" ry="18"/>
<text text-anchor="middle" x="407.7" y="-14.3" font-family="Times,serif" font-size="14.00">worker A.4</text>
</g>
<!-- master A&#45;&gt;worker A.4 -->
<g id="edge5" class="edge">
<title>master A&#45;&gt;worker A.4</title>
<path fill="none" stroke="black" d="M555.5,-77.13C526.56,-65.74 482.59,-48.45 450.13,-35.69"/>
<polygon fill="black" stroke="black" points="451.04,-32.29 440.46,-31.88 448.48,-38.8 451.04,-32.29"/>
</g>
<!-- worker A.5 -->
<g id="node7" class="node">
<title>worker A.5</title>
<ellipse fill="none" stroke="black" cx="526.7" cy="-18" rx="50.89" ry="18"/>
<text text-anchor="middle" x="526.7" y="-14.3" font-family="Times,serif" font-size="14.00">worker A.5</text>
</g>
<!-- master A&#45;&gt;worker A.5 -->
<g id="edge6" class="edge">
<title>master A&#45;&gt;worker A.5</title>
<path fill="none" stroke="black" d="M572.01,-72.76C564.67,-64.06 555.48,-53.15 547.29,-43.43"/>
<polygon fill="black" stroke="black" points="549.84,-41.02 540.72,-35.63 544.48,-45.54 549.84,-41.02"/>
</g>
<!-- worker A.6 -->
<g id="node8" class="node">
<title>worker A.6</title>
<ellipse fill="red" stroke="black" cx="645.7" cy="-18" rx="50.89" ry="18"/>
<text text-anchor="middle" x="645.7" y="-14.3" font-family="Times,serif" font-size="14.00">worker A.6</text>
</g>
<!-- master A&#45;&gt;worker A.6 -->
<g id="edge7" class="edge">
<title>master A&#45;&gt;worker A.6</title>
<path fill="none" stroke="black" d="M599.61,-72.76C607.08,-64.06 616.43,-53.15 624.75,-43.43"/>
<polygon fill="black" stroke="black" points="627.59,-45.5 631.44,-35.63 622.27,-40.95 627.59,-45.5"/>
</g>
<!-- worker A.7 -->
<g id="node9" class="node">
<title>worker A.7</title>
<ellipse fill="red" stroke="black" cx="764.7" cy="-18" rx="50.89" ry="18"/>
<text text-anchor="middle" x="764.7" y="-14.3" font-family="Times,serif" font-size="14.00">worker A.7</text>
</g>
<!-- master A&#45;&gt;worker A.7 -->
<g id="edge8" class="edge">
<title>master A&#45;&gt;worker A.7</title>
<path fill="none" stroke="black" d="M616.06,-77.13C645.17,-65.74 689.38,-48.45 722.02,-35.69"/>
<polygon fill="black" stroke="black" points="723.71,-38.79 731.75,-31.88 721.16,-32.27 723.71,-38.79"/>
</g>
<!-- worker A.8 -->
<g id="node10" class="node">
<title>worker A.8</title>
<ellipse fill="red" stroke="black" cx="883.7" cy="-18" rx="50.89" ry="18"/>
<text text-anchor="middle" x="883.7" y="-14.3" font-family="Times,serif" font-size="14.00">worker A.8</text>
</g>
<!-- master A&#45;&gt;worker A.8 -->
<g id="edge9" class="edge">
<title>master A&#45;&gt;worker A.8</title>
<path fill="none" stroke="black" d="M623.54,-81.37C670.8,-71.66 754.06,-53.99 824.7,-36 828.48,-35.04 832.39,-34 836.31,-32.93"/>
<polygon fill="black" stroke="black" points="837.32,-36.28 846.02,-30.23 835.45,-29.54 837.32,-36.28"/>
</g>
<!-- worker A.9 -->
<g id="node11" class="node">
<title>worker A.9</title>
<ellipse fill="red" stroke="black" cx="1002.7" cy="-18" rx="50.89" ry="18"/>
<text text-anchor="middle" x="1002.7" y="-14.3" font-family="Times,serif" font-size="14.00">worker A.9</text>
</g>
<!-- master A&#45;&gt;worker A.9 -->
<g id="edge10" class="edge">
<title>master A&#45;&gt;worker A.9</title>
<path fill="none" stroke="black" d="M626.82,-84.72C693.73,-77.36 830.11,-60.66 943.7,-36 947.74,-35.12 951.91,-34.12 956.08,-33.05"/>
<polygon fill="black" stroke="black" points="956.99,-36.43 965.75,-30.46 955.18,-29.67 956.99,-36.43"/>
</g>
<!-- worker A.10 -->
<g id="node12" class="node">
<title>worker A.10</title>
<ellipse fill="red" stroke="black" cx="1126.7" cy="-18" rx="55.49" ry="18"/>
<text text-anchor="middle" x="1126.7" y="-14.3" font-family="Times,serif" font-size="14.00">worker A.10</text>
</g>
<!-- master A&#45;&gt;worker A.10 -->
<g id="edge11" class="edge">
<title>master A&#45;&gt;worker A.10</title>
<path fill="none" stroke="black" d="M627.8,-86.44C711.31,-80.89 903.61,-65.8 1062.7,-36 1067.39,-35.12 1072.25,-34.08 1077.09,-32.95"/>
<polygon fill="black" stroke="black" points="1078.08,-36.31 1086.96,-30.54 1076.42,-29.51 1078.08,-36.31"/>
</g>
</g>
</svg>
