<?xml version="1.0" encoding="UTF-8" standalone="no"?>
<!DOCTYPE svg PUBLIC "-//W3C//DTD SVG 1.1//EN"
 "http://www.w3.org/Graphics/SVG/1.1/DTD/svg11.dtd">
<!-- Generated by graphviz version 2.50.0 (20211204.2007)
 -->
<!-- Title: G Pages: 1 -->
<svg width="595pt" height="188pt"
 viewBox="0.00 0.00 594.94 188.00" xmlns="http://www.w3.org/2000/svg" xmlns:xlink="http://www.w3.org/1999/xlink">
<g id="graph0" class="graph" transform="scale(1 1) rotate(0) translate(4 184)">
<title>G</title>
<polygon fill="white" stroke="transparent" points="-4,4 -4,-184 590.94,-184 590.94,4 -4,4"/>
<!-- client -->
<g id="node1" class="node">
<title>client</title>
<ellipse fill="none" stroke="black" cx="288.7" cy="-162" rx="30.59" ry="18"/>
<text text-anchor="middle" x="288.7" y="-158.3" font-family="Times,serif" font-size="14.00">client</text>
</g>
<!-- master A -->
<g id="node2" class="node">
<title>master A</title>
<ellipse fill="none" stroke="black" cx="288.7" cy="-90" rx="42.79" ry="18"/>
<text text-anchor="middle" x="288.7" y="-86.3" font-family="Times,serif" font-size="14.00">master A</text>
</g>
<!-- client&#45;&gt;master A -->
<g id="edge1" class="edge">
<title>client&#45;&gt;master A</title>
<path fill="none" stroke="black" d="M288.7,-143.7C288.7,-135.98 288.7,-126.71 288.7,-118.11"/>
<polygon fill="black" stroke="black" points="292.2,-118.1 288.7,-108.1 285.2,-118.1 292.2,-118.1"/>
</g>
<!-- worker A.6 -->
<g id="node3" class="node">
<title>worker A.6</title>
<ellipse fill="red" stroke="black" cx="50.7" cy="-18" rx="50.89" ry="18"/>
<text text-anchor="middle" x="50.7" y="-14.3" font-family="Times,serif" font-size="14.00">worker A.6</text>
</g>
<!-- master A&#45;&gt;worker A.6 -->
<g id="edge2" class="edge">
<title>master A&#45;&gt;worker A.6</title>
<path fill="none" stroke="black" d="M254.6,-78.97C213.64,-66.93 144.7,-46.65 98.46,-33.05"/>
<polygon fill="black" stroke="black" points="99.25,-29.63 88.67,-30.17 97.27,-36.35 99.25,-29.63"/>
</g>
<!-- worker A.7 -->
<g id="node4" class="node">
<title>worker A.7</title>
<ellipse fill="red" stroke="black" cx="169.7" cy="-18" rx="50.89" ry="18"/>
<text text-anchor="middle" x="169.7" y="-14.3" font-family="Times,serif" font-size="14.00">worker A.7</text>
</g>
<!-- master A&#45;&gt;worker A.7 -->
<g id="edge3" class="edge">
<title>master A&#45;&gt;worker A.7</title>
<path fill="none" stroke="black" d="M264.9,-75C247.25,-64.62 222.96,-50.33 203.33,-38.79"/>
<polygon fill="black" stroke="black" points="205.07,-35.75 194.68,-33.7 201.53,-41.78 205.07,-35.75"/>
</g>
<!-- worker A.8 -->
<g id="node5" class="node">
<title>worker A.8</title>
<ellipse fill="red" stroke="black" cx="288.7" cy="-18" rx="50.89" ry="18"/>
<text text-anchor="middle" x="288.7" y="-14.3" font-family="Times,serif" font-size="14.00">worker A.8</text>
</g>
<!-- master A&#45;&gt;worker A.8 -->
<g id="edge4" class="edge">
<title>master A&#45;&gt;worker A.8</title>
<path fill="none" stroke="black" d="M288.7,-71.7C288.7,-63.98 288.7,-54.71 288.7,-46.11"/>
<polygon fill="black" stroke="black" points="292.2,-46.1 288.7,-36.1 285.2,-46.1 292.2,-46.1"/>
</g>
<!-- worker A.9 -->
<g id="node6" class="node">
<title>worker A.9</title>
<ellipse fill="red" stroke="black" cx="407.7" cy="-18" rx="50.89" ry="18"/>
<text text-anchor="middle" x="407.7" y="-14.3" font-family="Times,serif" font-size="14.00">worker A.9</text>
</g>
<!-- master A&#45;&gt;worker A.9 -->
<g id="edge5" class="edge">
<title>master A&#45;&gt;worker A.9</title>
<path fill="none" stroke="black" d="M312.49,-75C330.14,-64.62 354.43,-50.33 374.06,-38.79"/>
<polygon fill="black" stroke="black" points="375.87,-41.78 382.71,-33.7 372.32,-35.75 375.87,-41.78"/>
</g>
<!-- worker A.10 -->
<g id="node7" class="node">
<title>worker A.10</title>
<ellipse fill="red" stroke="black" cx="531.7" cy="-18" rx="55.49" ry="18"/>
<text text-anchor="middle" x="531.7" y="-14.3" font-family="Times,serif" font-size="14.00">worker A.10</text>
</g>
<!-- master A&#45;&gt;worker A.10 -->
<g id="edge6" class="edge">
<title>master A&#45;&gt;worker A.10</title>
<path fill="none" stroke="black" d="M323,-79.12C364.4,-67.19 434.36,-47.04 481.75,-33.39"/>
<polygon fill="black" stroke="black" points="482.87,-36.71 491.51,-30.58 480.93,-29.98 482.87,-36.71"/>
</g>
</g>
</svg>
