<?xml version="1.0" encoding="UTF-8" standalone="no"?><svg xmlns="http://www.w3.org/2000/svg" xmlns:xlink="http://www.w3.org/1999/xlink" contentScriptType="application/ecmascript" contentStyleType="text/css" height="173px" preserveAspectRatio="none" style="width:239px;height:173px;background:#FFFFFF;" version="1.1" viewBox="0 0 239 173" width="239px" zoomAndPan="magnify"><defs><filter height="300%" id="f1t87v57ztjd05" width="300%" x="-1" y="-1"><feGaussianBlur result="blurOut" stdDeviation="2.0"/><feColorMatrix in="blurOut" result="blurOut2" type="matrix" values="0 0 0 0 0 0 0 0 0 0 0 0 0 0 0 0 0 0 .4 0"/><feOffset dx="4.0" dy="4.0" in="blurOut2" result="blurOut3"/><feBlend in="SourceGraphic" in2="blurOut3" mode="normal"/></filter></defs><g><!--MD5=[770389ab9df153645bc6ef28055eb2b5]
entity A--><rect fill="#FEFECE" filter="url(#f1t87v57ztjd05)" height="46.4883" style="stroke:#A80036;stroke-width:1.5;" width="50" x="7" y="7"/><rect fill="#FEFECE" height="10" style="stroke:#A80036;stroke-width:1.5;" width="15" x="37" y="12"/><rect fill="#FEFECE" height="2" style="stroke:#A80036;stroke-width:1.5;" width="4" x="35" y="14"/><rect fill="#FEFECE" height="2" style="stroke:#A80036;stroke-width:1.5;" width="4" x="35" y="18"/><text fill="#000000" font-family="sans-serif" font-size="14" lengthAdjust="spacing" textLength="10" x="22" y="40.5352">A</text><!--MD5=[b2d39259b6aeabc16b394deeb0238426]
entity B--><rect fill="#FEFECE" filter="url(#f1t87v57ztjd05)" height="46.4883" style="stroke:#A80036;stroke-width:1.5;" width="48" x="92" y="7"/><rect fill="#FEFECE" height="10" style="stroke:#A80036;stroke-width:1.5;" width="15" x="120" y="12"/><rect fill="#FEFECE" height="2" style="stroke:#A80036;stroke-width:1.5;" width="4" x="118" y="14"/><rect fill="#FEFECE" height="2" style="stroke:#A80036;stroke-width:1.5;" width="4" x="118" y="18"/><text fill="#000000" font-family="sans-serif" font-size="14" lengthAdjust="spacing" textLength="8" x="107" y="40.5352">B</text><!--MD5=[16fab723be418f7eaf2ea4bd895a8e51]
entity C--><rect fill="#FEFECE" filter="url(#f1t87v57ztjd05)" height="46.4883" style="stroke:#A80036;stroke-width:1.5;" width="50" x="175" y="7"/><rect fill="#FEFECE" height="10" style="stroke:#A80036;stroke-width:1.5;" width="15" x="205" y="12"/><rect fill="#FEFECE" height="2" style="stroke:#A80036;stroke-width:1.5;" width="4" x="203" y="14"/><rect fill="#FEFECE" height="2" style="stroke:#A80036;stroke-width:1.5;" width="4" x="203" y="18"/><text fill="#000000" font-family="sans-serif" font-size="14" lengthAdjust="spacing" textLength="10" x="190" y="40.5352">C</text><!--MD5=[118f42602524ad482f02b27ef22fc383]
entity D--><rect fill="#FEFECE" filter="url(#f1t87v57ztjd05)" height="46.4883" style="stroke:#A80036;stroke-width:1.5;" width="50" x="175" y="113"/><rect fill="#FEFECE" height="10" style="stroke:#A80036;stroke-width:1.5;" width="15" x="205" y="118"/><rect fill="#FEFECE" height="2" style="stroke:#A80036;stroke-width:1.5;" width="4" x="203" y="120"/><rect fill="#FEFECE" height="2" style="stroke:#A80036;stroke-width:1.5;" width="4" x="203" y="124"/><text fill="#000000" font-family="sans-serif" font-size="14" lengthAdjust="spacing" textLength="10" x="190" y="146.5352">D</text><!--MD5=[5e2eec62a50b26b6b0db6c12e4ee289c]
link A to B--><path d="M57.27,30 C67.03,30 76.8,30 86.57,30 " fill="none" id="A-to-B" style="stroke:#A80036;stroke-width:1.0;"/><polygon fill="#A80036" points="91.68,30,82.68,26,86.68,30,82.68,34,91.68,30" style="stroke:#A80036;stroke-width:1.0;"/><!--MD5=[cd25d8247324207f828a4db9f58ed69d]
link B to C--><path d="M140.28,30 C150.08,30 159.88,30 169.68,30 " fill="none" id="B-to-C" style="stroke:#A80036;stroke-width:1.0;stroke-dasharray:7.0,7.0;"/><polygon fill="#A80036" points="174.81,30,165.81,26,169.81,30,165.81,34,174.81,30" style="stroke:#A80036;stroke-width:1.0;"/><!--MD5=[95ca888c4bb7ed1df160562281720a5c]
link C to D--><path d="M200,53.06 C200,69.05 200,90.78 200,107.84 " fill="none" id="C-to-D" style="stroke:#A80036;stroke-width:1.0;"/><polygon fill="#A80036" points="200,112.98,204,103.98,200,107.98,196,103.98,200,112.98" style="stroke:#A80036;stroke-width:1.0;"/><!--MD5=[cd74e0aa78a529c9f055012acb712cb3]
@startuml
[A] -> [B]
[B] .> [C]
[C] - -> [D]
@enduml

PlantUML version 1.2022.0(Wed Jan 12 00:16:42 SGT 2022)
(GPL source distribution)
Java Runtime: OpenJDK Runtime Environment
JVM: OpenJDK 64-Bit Server VM
Default Encoding: UTF-8
Language: en
Country: SG
--></g></svg>