<?xml version="1.0" encoding="UTF-8" standalone="no"?><svg xmlns="http://www.w3.org/2000/svg" xmlns:xlink="http://www.w3.org/1999/xlink" contentScriptType="application/ecmascript" contentStyleType="text/css" height="536px" preserveAspectRatio="none" style="width:729px;height:536px;background:#FFFFFF;" version="1.1" viewBox="0 0 729 536" width="729px" zoomAndPan="magnify"><defs><filter height="300%" id="foqozvhntwtng" width="300%" x="-1" y="-1"><feGaussianBlur result="blurOut" stdDeviation="2.0"/><feColorMatrix in="blurOut" result="blurOut2" type="matrix" values="0 0 0 0 0 0 0 0 0 0 0 0 0 0 0 0 0 0 .4 0"/><feOffset dx="4.0" dy="4.0" in="blurOut2" result="blurOut3"/><feBlend in="SourceGraphic" in2="blurOut3" mode="normal"/></filter></defs><g><!--MD5=[e209b37fc91f378abaa2ddf468318055]
entity actor--><ellipse cx="41.1806" cy="14" fill="#FEFECE" filter="url(#foqozvhntwtng)" rx="8" ry="8" style="stroke:#A80036;stroke-width:1.5;"/><path d="M41.1806,22 L41.1806,49 M28.1806,30 L54.1806,30 M41.1806,49 L28.1806,64 M41.1806,49 L54.1806,64 " fill="none" filter="url(#foqozvhntwtng)" style="stroke:#A80036;stroke-width:1.5;"/><text fill="#000000" font-family="sans-serif" font-size="14" lengthAdjust="spacing" textLength="35" x="23.6806" y="83.0352">actor</text><!--MD5=[3908db504f15eb564d5f0e12bd7273c1]
entity agent--><rect fill="#FEFECE" filter="url(#foqozvhntwtng)" height="36.4883" style="stroke:#A80036;stroke-width:1.5;" width="59" x="93.6806" y="27"/><text fill="#000000" font-family="sans-serif" font-size="14" lengthAdjust="spacing" textLength="39" x="103.6806" y="50.5352">agent</text><!--MD5=[ed13bbfe61d4f4be62c09eebe4db66d3]
entity artifact--><rect fill="#FEFECE" filter="url(#foqozvhntwtng)" height="39.4883" style="stroke:#000000;stroke-width:1.5;" width="78" x="188.1806" y="25.5"/><polygon fill="#FEFECE" points="249.1806,30.5,249.1806,44.5,261.1806,44.5,261.1806,36.5,255.1806,30.5,249.1806,30.5" style="stroke:#000000;stroke-width:1.5;"/><line style="stroke:#000000;stroke-width:1.5;" x1="255.1806" x2="255.1806" y1="30.5" y2="36.5"/><line style="stroke:#000000;stroke-width:1.5;" x1="261.1806" x2="255.1806" y1="36.5" y2="36.5"/><text fill="#000000" font-family="sans-serif" font-size="14" lengthAdjust="spacing" textLength="48" x="198.1806" y="52.0352">artifact</text><!--MD5=[6cbf048fd2d5a055b0f2cbfd23391788]
entity boundary--><path d="M313.6806,25 L313.6806,49 M313.6806,37 L330.6806,37 " fill="none" filter="url(#foqozvhntwtng)" style="stroke:#A80036;stroke-width:1.5;"/><ellipse cx="342.6806" cy="37" fill="#FEFECE" filter="url(#foqozvhntwtng)" rx="12" ry="12" style="stroke:#A80036;stroke-width:1.5;"/><text fill="#000000" font-family="sans-serif" font-size="14" lengthAdjust="spacing" textLength="66" x="301.1806" y="66.5352">boundary</text><!--MD5=[0568ea600d1c2ace8679ac75c80dfc89]
entity card--><rect fill="#FEFECE" filter="url(#foqozvhntwtng)" height="22.4883" style="stroke:#000000;stroke-width:1.5;" width="50" x="402.1806" y="34"/><text fill="#000000" font-family="sans-serif" font-size="14" lengthAdjust="spacing" textLength="30" x="412.1806" y="50.5352">card</text><!--MD5=[da456bc05ddb284180092693c9c3b3b1]
entity circle--><ellipse cx="514.1806" cy="45" fill="#FEFECE" filter="url(#foqozvhntwtng)" rx="8" ry="8" style="stroke:#A80036;stroke-width:1.5;"/><text fill="#000000" font-family="sans-serif" font-size="14" lengthAdjust="spacing" textLength="36" x="496.1806" y="75.5352">circle</text><!--MD5=[3a4d72efb1b53e1acbdd1189cccbc328]
entity cloud--><path d="M16.2755,155.5025 C18.6365,149.4034 24.3451,148.2045 28.415,153.7158 C32.0565,145.821 36.2966,144.8052 42.261,151.5133 C46.5736,146.4926 52.2954,147.077 54.7724,153.5172 C59.3361,148.1672 64.6387,149.8916 67.2419,155.7067 C75.0014,157.9275 78.1781,164.9482 70.9822,170.8603 C76.989,176.2002 76.8109,182.6723 68.7857,185.9727 C66.2288,194.1208 61.1084,194.8846 54.8937,189.818 C53.0821,196.8716 47.9772,196.9653 43.3518,192.6829 C38.2748,197.8137 31.3023,197.6785 29.0544,189.6169 C24.2534,195.6906 18.6298,192.4883 16.6119,186.6981 C8.0646,184.1425 7.4392,177.9572 12.6855,171.7729 C6,165.8631 8.5881,158.241 16.2755,155.5025 " fill="#FEFECE" filter="url(#foqozvhntwtng)" style="stroke:#000000;stroke-width:1.5;"/><text fill="#000000" font-family="sans-serif" font-size="14" lengthAdjust="spacing" textLength="38" x="22.1806" y="175.0352">cloud</text><!--MD5=[a5a7a1c563e7de0fee7f3171b646813b]
entity collections--><rect fill="#FEFECE" filter="url(#foqozvhntwtng)" height="32.4883" style="stroke:#A80036;stroke-width:1.5;" width="89" x="114.6806" y="155.5"/><rect fill="#FEFECE" height="32.4883" style="stroke:#A80036;stroke-width:1.5;" width="89" x="110.6806" y="151.5"/><text fill="#000000" font-family="sans-serif" font-size="14" lengthAdjust="spacing" textLength="73" x="118.6806" y="173.0352">collections</text><!--MD5=[5f175ec018c225c86e8e77149e6345d4]
entity component--><rect fill="#FEFECE" filter="url(#foqozvhntwtng)" height="46.4883" style="stroke:#A80036;stroke-width:1.5;" width="118" x="239.1806" y="146.5"/><rect fill="#FEFECE" height="10" style="stroke:#A80036;stroke-width:1.5;" width="15" x="337.1806" y="151.5"/><rect fill="#FEFECE" height="2" style="stroke:#A80036;stroke-width:1.5;" width="4" x="335.1806" y="153.5"/><rect fill="#FEFECE" height="2" style="stroke:#A80036;stroke-width:1.5;" width="4" x="335.1806" y="157.5"/><text fill="#000000" font-family="sans-serif" font-size="14" lengthAdjust="spacing" textLength="78" x="254.1806" y="180.0352">component</text><!--MD5=[0b4603c22bc0d9214baf3db11effa15f]
entity control--><ellipse cx="417.1806" cy="161.5" fill="#FEFECE" filter="url(#foqozvhntwtng)" rx="12" ry="12" style="stroke:#A80036;stroke-width:1.5;"/><polygon fill="#A80036" points="413.1806,149.5,419.1806,144.5,417.1806,149.5,419.1806,154.5,413.1806,149.5" style="stroke:#A80036;stroke-width:1.0;"/><text fill="#000000" font-family="sans-serif" font-size="14" lengthAdjust="spacing" textLength="49" x="392.6806" y="191.0352">control</text><!--MD5=[f50ff5e4cd64f259303fc83dba1819fc]
entity database--><path d="M477.1806,157 C477.1806,147 518.1806,147 518.1806,147 C518.1806,147 559.1806,147 559.1806,157 L559.1806,182.4883 C559.1806,192.4883 518.1806,192.4883 518.1806,192.4883 C518.1806,192.4883 477.1806,192.4883 477.1806,182.4883 L477.1806,157 " fill="#FEFECE" filter="url(#foqozvhntwtng)" style="stroke:#000000;stroke-width:1.5;"/><path d="M477.1806,157 C477.1806,167 518.1806,167 518.1806,167 C518.1806,167 559.1806,167 559.1806,157 " fill="none" style="stroke:#000000;stroke-width:1.5;"/><text fill="#000000" font-family="sans-serif" font-size="14" lengthAdjust="spacing" textLength="62" x="487.1806" y="184.5352">database</text><!--MD5=[fbcd1a1664252f7f7ddf883fed3c1e0a]
entity entity--><ellipse cx="613.1806" cy="161.5" fill="#FEFECE" filter="url(#foqozvhntwtng)" rx="12" ry="12" style="stroke:#A80036;stroke-width:1.5;"/><line style="stroke:#A80036;stroke-width:1.5;" x1="601.1806" x2="625.1806" y1="175.5" y2="175.5"/><text fill="#000000" font-family="sans-serif" font-size="14" lengthAdjust="spacing" textLength="38" x="594.1806" y="191.0352">entity</text><!--MD5=[7edcefaa406c65155265f04249a95b70]
entity file--><polygon fill="#FEFECE" filter="url(#foqozvhntwtng)" points="20.6806,264.5,20.6806,300.9883,61.6806,300.9883,61.6806,274.5,51.6806,264.5,20.6806,264.5" style="stroke:#000000;stroke-width:1.5;"/><path d="M51.6806,264.5 L51.6806,274.5 L61.6806,274.5 " fill="#FEFECE" style="stroke:#000000;stroke-width:1.5;"/><text fill="#000000" font-family="sans-serif" font-size="14" lengthAdjust="spacing" textLength="21" x="30.6806" y="288.0352">file</text><!--MD5=[18b72bf5d1838316b3d85261d2b42cce]
entity folder--><polygon fill="#FEFECE" filter="url(#foqozvhntwtng)" points="96.6806,255.5,142.6806,255.5,149.6806,276.5,167.6806,276.5,167.6806,309.9883,96.6806,309.9883,96.6806,255.5" style="stroke:#000000;stroke-width:1.5;"/><line style="stroke:#000000;stroke-width:1.5;" x1="96.6806" x2="149.6806" y1="276.5" y2="276.5"/><text fill="#000000" font-family="sans-serif" font-size="14" lengthAdjust="spacing" textLength="41" x="106.6806" y="297.0352">folder</text><!--MD5=[7a641773cfca2682e51daa01eb969ffa]
entity frame--><rect fill="#FEFECE" filter="url(#foqozvhntwtng)" height="46.4883" style="stroke:#000000;stroke-width:1.5;" width="80" x="203.1806" y="259.5"/><path d="M229.8473,259.5 L229.8473,264.5 L222.8473,271.5 L203.1806,271.5 " fill="none" style="stroke:#000000;stroke-width:1.5;"/><text fill="#000000" font-family="sans-serif" font-size="14" lengthAdjust="spacing" textLength="40" x="218.1806" y="293.0352">frame</text><!--MD5=[ea4128e1b5db6200a10193b8015cde63]
entity interface--><ellipse cx="356.1806" cy="282.5" fill="#FEFECE" filter="url(#foqozvhntwtng)" rx="8" ry="8" style="stroke:#A80036;stroke-width:1.5;"/><text fill="#000000" font-family="sans-serif" font-size="14" lengthAdjust="spacing" textLength="60" x="326.1806" y="313.0352">interface</text><!--MD5=[0b70d51bdd028022f5101c089cfdd98e]
entity node--><polygon fill="#FEFECE" filter="url(#foqozvhntwtng)" points="429.6806,269.5,439.6806,259.5,504.6806,259.5,504.6806,295.9883,494.6806,305.9883,429.6806,305.9883,429.6806,269.5" style="stroke:#000000;stroke-width:1.5;"/><line style="stroke:#000000;stroke-width:1.5;" x1="494.6806" x2="504.6806" y1="269.5" y2="259.5"/><line style="stroke:#000000;stroke-width:1.5;" x1="429.6806" x2="494.6806" y1="269.5" y2="269.5"/><line style="stroke:#000000;stroke-width:1.5;" x1="494.6806" x2="494.6806" y1="269.5" y2="305.9883"/><text fill="#000000" font-family="sans-serif" font-size="14" lengthAdjust="spacing" textLength="35" x="444.6806" y="293.0352">node</text><!--MD5=[18b4c220f17afa2fa1b7909f1259f27e]
entity package--><polygon fill="#FEFECE" filter="url(#foqozvhntwtng)" points="540.1806,263,616.1806,263,623.1806,285.4883,640.1806,285.4883,640.1806,302.4883,540.1806,302.4883,540.1806,263" style="stroke:#000000;stroke-width:1.5;"/><line style="stroke:#000000;stroke-width:1.5;" x1="540.1806" x2="623.1806" y1="285.4883" y2="285.4883"/><text fill="#000000" font-family="sans-serif" font-size="14" font-weight="bold" lengthAdjust="spacing" textLength="58" x="550.1806" y="279.5352">package</text><!--MD5=[799e9543975076390d2a6ceafec8df6c]
entity queue--><path d="M14.6806,376.5 L67.6806,376.5 C72.6806,376.5 72.6806,389.7441 72.6806,389.7441 C72.6806,389.7441 72.6806,402.9883 67.6806,402.9883 L14.6806,402.9883 C9.6806,402.9883 9.6806,389.7441 9.6806,389.7441 C9.6806,389.7441 9.6806,376.5 14.6806,376.5 " fill="#FEFECE" filter="url(#foqozvhntwtng)" style="stroke:#A80036;stroke-width:1.5;"/><path d="M67.6806,376.5 C62.6806,376.5 62.6806,389.7441 62.6806,389.7441 C62.6806,402.9883 67.6806,402.9883 67.6806,402.9883 " fill="none" style="stroke:#A80036;stroke-width:1.5;"/><text fill="#000000" font-family="sans-serif" font-size="14" lengthAdjust="spacing" textLength="43" x="14.6806" y="395.0352">queue</text><!--MD5=[7267aa9592867b0c03d3cbda6e92e719]
entity rectangle--><rect fill="#FEFECE" filter="url(#foqozvhntwtng)" height="36.4883" style="stroke:#000000;stroke-width:1.5;" width="84" x="108.1806" y="371.5"/><text fill="#000000" font-family="sans-serif" font-size="14" lengthAdjust="spacing" textLength="64" x="118.1806" y="395.0352">rectangle</text><!--MD5=[f71e1929eceb486be132a5333dc4c68d]
entity stack--><rect fill="#FEFECE" height="36.4883" style="stroke:none;stroke-width:1.5;" width="55" x="242.6806" y="371.5"/><path d="M227.6806,371.5 L242.6806,371.5 L242.6806,407.9883 L297.6806,407.9883 L297.6806,371.5 L312.6806,371.5 " fill="none" filter="url(#foqozvhntwtng)" style="stroke:#A80036;stroke-width:1.5;"/><text fill="#000000" font-family="sans-serif" font-size="14" lengthAdjust="spacing" textLength="35" x="252.6806" y="395.0352">stack</text><!--MD5=[a5a6ae0ba01c8a4589ab26bd33e87aad]
entity storage--><rect fill="#FEFECE" filter="url(#foqozvhntwtng)" height="36.4883" rx="35" ry="35" style="stroke:#000000;stroke-width:1.5;" width="72" x="348.1806" y="371.5"/><text fill="#000000" font-family="sans-serif" font-size="14" lengthAdjust="spacing" textLength="52" x="358.1806" y="395.0352">storage</text><ellipse cx="504.9774" cy="389.6909" fill="#FEFECE" filter="url(#foqozvhntwtng)" rx="49.7967" ry="14.6909" style="stroke:#A80036;stroke-width:1.5;"/><text fill="#000000" font-family="sans-serif" font-size="14" lengthAdjust="spacing" textLength="54" x="475.5346" y="393.5922">usecase</text><!--MD5=[e7a3c9eff3984f9cf41ce7be584d8e98]
entity hexagon--><polygon fill="#FEFECE" filter="url(#foqozvhntwtng)" points="712.1806,389.5,681.6806,376.5,620.6806,376.5,590.1806,389.5,620.6806,402.5,681.6806,402.5,712.1806,389.5" style="stroke:#000000;stroke-width:1.5;"/><text fill="#000000" font-family="sans-serif" font-size="14" lengthAdjust="spacing" textLength="61" x="620.6806" y="395.0352">hexagon</text><!--MD5=[a4a9a576f4d148d24afc849b85929192]
entity label--><text fill="#000000" font-family="sans-serif" font-size="14" lengthAdjust="spacing" textLength="33" x="24.6806" y="501.5352">label</text><!--MD5=[785617a40335b4b3f4a4f9c464842b0b]
entity person--><ellipse cx="137.1806" cy="477.9605" fill="#FEFECE" filter="url(#foqozvhntwtng)" rx="10.4605" ry="10.4605" style="stroke:#000000;stroke-width:1.5;"/><rect fill="#FEFECE" filter="url(#foqozvhntwtng)" height="36.4883" rx="10.4605" ry="10.4605" style="stroke:#000000;stroke-width:1.5;" width="68" x="103.1806" y="488.4209"/><text fill="#000000" font-family="sans-serif" font-size="14" lengthAdjust="spacing" textLength="48" x="113.1806" y="511.9561">person</text><!--MD5=[403d5c14816e3fd6c34baff245aae996]
link actor to agent--><!--MD5=[64bb286cf7260b747f34aab12634a004]
link agent to artifact--><!--MD5=[00e5dfb8e68433482ac634f71ca4cc03]
link artifact to boundary--><!--MD5=[0a1997872cb7b5dc19307073964d47e6]
link boundary to card--><!--MD5=[7677ba5ff384e04a2db9cb65fcabf0e3]
link card to circle--><!--MD5=[0bccf8e3437c5c3c7fe51f45cc386cff]
link actor to cloud--><!--MD5=[0b440645a936dd341138124ef929e183]
link cloud to collections--><!--MD5=[ee23a149a812653026017f1538146379]
link collections to component--><!--MD5=[4533821a253da4c88be5a6a338acd4e9]
link component to control--><!--MD5=[ee3f3e4871a542abb22ae612dc643c4d]
link control to database--><!--MD5=[db09ec649a2042184b714bedb9633c9d]
link database to entity--><!--MD5=[230daab3704eea35d9df381183ed6ee2]
link cloud to file--><!--MD5=[34c4ea2ec1a1e6d0a3a34a5ce0777fef]
link file to folder--><!--MD5=[0c6dffb2cca7298a41ee3788a177ce7f]
link folder to frame--><!--MD5=[ee194c5b89fc636fd01c768ce6f86d88]
link frame to interface--><!--MD5=[4bc6ae854b5665c09b46a881b905e5ae]
link interface to node--><!--MD5=[25eee8668465b150de9b719034a4e11f]
link node to package--><!--MD5=[044242ea6c63be6da9dc1bbf6435e39f]
link file to queue--><!--MD5=[5e09dbeb541d8095ed90cbe6e1c3bfee]
link queue to rectangle--><!--MD5=[a5f2acbaed725906ad2f2d0afbd4fde1]
link rectangle to stack--><!--MD5=[e89c2b0e13177e8e3d374c65ed5a32e2]
link stack to storage--><!--MD5=[3653f2d8d01dce9d85eaa536b92b1c92]
link storage to usecase--><!--MD5=[0ded90603b4129e89165bcb20d0ceb0d]
link usecase to hexagon--><!--MD5=[f801a0c67723f2f8edc9f777cfaaa095]
link queue to label--><!--MD5=[49db29700887de0ffc0ddfe123546523]
link label to person--><!--MD5=[f7e8c703c86b267a667f0556d970b0a7]
@startuml
actor actor
agent agent
artifact artifact
boundary boundary
card card
circle circle
cloud cloud
collections collections
component component
control control
database database
entity entity
file file
folder folder
frame frame
interface interface
node node
package package
queue queue
rectangle rectangle
stack stack
storage storage
usecase usecase
hexagon hexagon
label label
person person
@enduml

PlantUML version 1.2022.0(Wed Jan 12 00:16:42 SGT 2022)
(GPL source distribution)
Java Runtime: OpenJDK Runtime Environment
JVM: OpenJDK 64-Bit Server VM
Default Encoding: UTF-8
Language: en
Country: SG
--></g></svg>