<?xml version="1.0" encoding="UTF-8" standalone="no"?><svg xmlns="http://www.w3.org/2000/svg" xmlns:xlink="http://www.w3.org/1999/xlink" contentScriptType="application/ecmascript" contentStyleType="text/css" height="337px" preserveAspectRatio="none" style="width:316px;height:337px;background:#FFFFFF;" version="1.1" viewBox="0 0 316 337" width="316px" zoomAndPan="magnify"><defs><filter height="300%" id="f1ewc5t4jw4yjf" width="300%" x="-1" y="-1"><feGaussianBlur result="blurOut" stdDeviation="2.0"/><feColorMatrix in="blurOut" result="blurOut2" type="matrix" values="0 0 0 0 0 0 0 0 0 0 0 0 0 0 0 0 0 0 .4 0"/><feOffset dx="4.0" dy="4.0" in="blurOut2" result="blurOut3"/><feBlend in="SourceGraphic" in2="blurOut3" mode="normal"/></filter></defs><g><rect fill="#FFFFFF" filter="url(#f1ewc5t4jw4yjf)" height="114.9316" style="stroke:#A80036;stroke-width:1.0;" width="10" x="136" y="119.7988"/><rect fill="#FFFFFF" filter="url(#f1ewc5t4jw4yjf)" height="14" style="stroke:#A80036;stroke-width:1.0;" width="10" x="256" y="206.7305"/><line style="stroke:#A80036;stroke-width:1.0;stroke-dasharray:5.0,5.0;" x1="28" x2="28" y1="88.4883" y2="252.7305"/><line style="stroke:#A80036;stroke-width:1.0;stroke-dasharray:5.0,5.0;" x1="140.5" x2="140.5" y1="88.4883" y2="252.7305"/><line style="stroke:#A80036;stroke-width:1.0;stroke-dasharray:5.0,5.0;" x1="260.5" x2="260.5" y1="88.4883" y2="252.7305"/><text fill="#000000" font-family="sans-serif" font-size="14" lengthAdjust="spacing" textLength="40" x="5" y="85.5352">Client</text><ellipse cx="28" cy="15" fill="#FEFECE" filter="url(#f1ewc5t4jw4yjf)" rx="8" ry="8" style="stroke:#A80036;stroke-width:2.0;"/><path d="M28,23 L28,50 M15,31 L41,31 M28,50 L15,65 M28,50 L41,65 " fill="none" filter="url(#f1ewc5t4jw4yjf)" style="stroke:#A80036;stroke-width:2.0;"/><text fill="#000000" font-family="sans-serif" font-size="14" lengthAdjust="spacing" textLength="40" x="5" y="265.2656">Client</text><ellipse cx="28" cy="278.2188" fill="#FEFECE" filter="url(#f1ewc5t4jw4yjf)" rx="8" ry="8" style="stroke:#A80036;stroke-width:2.0;"/><path d="M28,286.2188 L28,313.2188 M15,294.2188 L41,294.2188 M28,313.2188 L15,328.2188 M28,313.2188 L41,328.2188 " fill="none" filter="url(#f1ewc5t4jw4yjf)" style="stroke:#A80036;stroke-width:2.0;"/><rect fill="#FEFECE" filter="url(#f1ewc5t4jw4yjf)" height="30.4883" style="stroke:#A80036;stroke-width:1.5;" width="91" x="93.5" y="53"/><text fill="#000000" font-family="sans-serif" font-size="14" lengthAdjust="spacing" textLength="77" x="100.5" y="73.5352">Foo service</text><rect fill="#FEFECE" filter="url(#f1ewc5t4jw4yjf)" height="30.4883" style="stroke:#A80036;stroke-width:1.5;" width="91" x="93.5" y="251.7305"/><text fill="#000000" font-family="sans-serif" font-size="14" lengthAdjust="spacing" textLength="77" x="100.5" y="272.2656">Foo service</text><rect fill="#FEFECE" filter="url(#f1ewc5t4jw4yjf)" height="30.4883" style="stroke:#A80036;stroke-width:1.5;" width="87" x="215.5" y="53"/><text fill="#000000" font-family="sans-serif" font-size="14" lengthAdjust="spacing" textLength="73" x="222.5" y="73.5352">Bar service</text><rect fill="#FEFECE" filter="url(#f1ewc5t4jw4yjf)" height="30.4883" style="stroke:#A80036;stroke-width:1.5;" width="87" x="215.5" y="251.7305"/><text fill="#000000" font-family="sans-serif" font-size="14" lengthAdjust="spacing" textLength="73" x="222.5" y="272.2656">Bar service</text><rect fill="#FFFFFF" filter="url(#f1ewc5t4jw4yjf)" height="114.9316" style="stroke:#A80036;stroke-width:1.0;" width="10" x="136" y="119.7988"/><rect fill="#FFFFFF" filter="url(#f1ewc5t4jw4yjf)" height="14" style="stroke:#A80036;stroke-width:1.0;" width="10" x="256" y="206.7305"/><polygon fill="#A80036" points="124,115.7988,134,119.7988,124,123.7988,128,119.7988" style="stroke:#A80036;stroke-width:1.0;"/><line style="stroke:#A80036;stroke-width:1.0;" x1="28" x2="130" y1="119.7988" y2="119.7988"/><text fill="#000000" font-family="sans-serif" font-size="13" font-weight="bold" lengthAdjust="spacing" textLength="89" x="35" y="115.0566">GET /foo/:id/</text><line style="stroke:#A80036;stroke-width:1.0;" x1="146" x2="188" y1="164.4199" y2="164.4199"/><line style="stroke:#A80036;stroke-width:1.0;" x1="188" x2="188" y1="164.4199" y2="177.4199"/><line style="stroke:#A80036;stroke-width:1.0;" x1="147" x2="188" y1="177.4199" y2="177.4199"/><polygon fill="#A80036" points="157,173.4199,147,177.4199,157,181.4199,153,177.4199" style="stroke:#A80036;stroke-width:1.0;"/><text fill="#000000" font-family="sans-serif" font-size="13" lengthAdjust="spacing" textLength="89" x="153" y="144.3672">Do something</text><text fill="#000000" font-family="sans-serif" font-size="13" lengthAdjust="spacing" textLength="58" x="153" y="159.6777">with data</text><polygon fill="#A80036" points="244,202.7305,254,206.7305,244,210.7305,248,206.7305" style="stroke:#A80036;stroke-width:1.0;"/><line style="stroke:#A80036;stroke-width:1.0;" x1="146" x2="250" y1="206.7305" y2="206.7305"/><text fill="#000000" font-family="sans-serif" font-size="13" font-weight="bold" lengthAdjust="spacing" textLength="91" x="153" y="201.9883">GET /bar/:id/</text><polygon fill="#A80036" points="157,216.7305,147,220.7305,157,224.7305,153,220.7305" style="stroke:#A80036;stroke-width:1.0;"/><line style="stroke:#A80036;stroke-width:1.0;stroke-dasharray:2.0,2.0;" x1="151" x2="260" y1="220.7305" y2="220.7305"/><polygon fill="#A80036" points="39,230.7305,29,234.7305,39,238.7305,35,234.7305" style="stroke:#A80036;stroke-width:1.0;"/><line style="stroke:#A80036;stroke-width:1.0;stroke-dasharray:2.0,2.0;" x1="33" x2="140" y1="234.7305" y2="234.7305"/><!--MD5=[65a4bbd14bce3aeb88b71d8699821543]
@startuml
actor Client as Client
participant "Foo service" as Foo
participant "Bar service" as Bar

Client -> Foo ++ : **GET /foo/:id/**
    Foo -> Foo : Do something\nwith data
    Foo -> Bar ++ : **GET /bar/:id/**
    Foo <- - Bar - -
Client <- - Foo - -
@enduml

PlantUML version 1.2022.0(Wed Jan 12 00:16:42 SGT 2022)
(GPL source distribution)
Java Runtime: OpenJDK Runtime Environment
JVM: OpenJDK 64-Bit Server VM
Default Encoding: UTF-8
Language: en
Country: SG
--></g></svg>