<?xml version="1.0" encoding="UTF-8" standalone="no"?><svg xmlns="http://www.w3.org/2000/svg" xmlns:xlink="http://www.w3.org/1999/xlink" contentScriptType="application/ecmascript" contentStyleType="text/css" height="69px" preserveAspectRatio="none" style="width:558px;height:69px;background:#FFFFFF;" version="1.1" viewBox="0 0 558 69" width="558px" zoomAndPan="magnify"><defs><filter height="300%" id="fgzimft8g14ur" width="300%" x="-1" y="-1"><feGaussianBlur result="blurOut" stdDeviation="2.0"/><feColorMatrix in="blurOut" result="blurOut2" type="matrix" values="0 0 0 0 0 0 0 0 0 0 0 0 0 0 0 0 0 0 .4 0"/><feOffset dx="4.0" dy="4.0" in="blurOut2" result="blurOut3"/><feBlend in="SourceGraphic" in2="blurOut3" mode="normal"/></filter></defs><g><!--MD5=[96f7e1299d4a43069e6ed32352fcac20]
entity HTTP--><ellipse cx="176" cy="30" fill="#FEFECE" filter="url(#fgzimft8g14ur)" rx="8" ry="8" style="stroke:#A80036;stroke-width:1.5;"/><text fill="#000000" font-family="sans-serif" font-size="14" lengthAdjust="spacing" textLength="36" x="158" y="60.5352">HTTP</text><path d="M6,17.5 L6,42.8105 A0,0 0 0 0 6,42.8105 L132,42.8105 A0,0 0 0 0 132,42.8105 L132,35.5 L166.74,30 L132,27.5 L132,27.5 L122,17.5 L6,17.5 A0,0 0 0 0 6,17.5 " fill="#FBFB77" filter="url(#fgzimft8g14ur)" style="stroke:#A80036;stroke-width:1.0;"/><path d="M122,17.5 L122,27.5 L132,27.5 L122,17.5 " fill="#FBFB77" style="stroke:#A80036;stroke-width:1.0;"/><text fill="#000000" font-family="sans-serif" font-size="13" lengthAdjust="spacing" textLength="105" x="12" y="35.0684">Web Service only</text><!--MD5=[cbd7cda55f2530e2efe43ec72c097853]
entity First Component--><rect fill="#FEFECE" filter="url(#fgzimft8g14ur)" height="46.4883" style="stroke:#A80036;stroke-width:1.5;" width="155" x="220.5" y="7"/><rect fill="#FEFECE" height="10" style="stroke:#A80036;stroke-width:1.5;" width="15" x="355.5" y="12"/><rect fill="#FEFECE" height="2" style="stroke:#A80036;stroke-width:1.5;" width="4" x="353.5" y="14"/><rect fill="#FEFECE" height="2" style="stroke:#A80036;stroke-width:1.5;" width="4" x="353.5" y="18"/><text fill="#000000" font-family="sans-serif" font-size="14" lengthAdjust="spacing" textLength="115" x="235.5" y="40.5352">First Component</text><path d="M411,9.5 L411,26 L375.85,30 L411,34 L411,50.1211 A0,0 0 0 0 411,50.1211 L549,50.1211 A0,0 0 0 0 549,50.1211 L549,19.5 L539,9.5 L411,9.5 A0,0 0 0 0 411,9.5 " fill="#FBFB77" filter="url(#fgzimft8g14ur)" style="stroke:#A80036;stroke-width:1.0;"/><path d="M539,9.5 L539,19.5 L549,19.5 L539,9.5 " fill="#FBFB77" style="stroke:#A80036;stroke-width:1.0;"/><text fill="#000000" font-family="sans-serif" font-size="13" lengthAdjust="spacing" textLength="97" x="417" y="27.0684">A note can also</text><text fill="#000000" font-family="sans-serif" font-size="13" lengthAdjust="spacing" textLength="117" x="417" y="42.3789">be on several lines</text><!--MD5=[46d996859f59e5baf77956ce93023cee]
link HTTP to First Component--><path d="M185.05,30 C196.82,30 208.58,30 220.35,30 " fill="none" id="HTTP-First Component" style="stroke:#A80036;stroke-width:1.0;"/><!--MD5=[48f9f12e8a167eed63ef00d7b87c0a30]
@startuml
note left of HTTP : Web Service only

note right of [First Component]
  A note can also
  be on several lines
end note

HTTP - [First Component]
@enduml

PlantUML version 1.2022.0(Wed Jan 12 00:16:42 SGT 2022)
(GPL source distribution)
Java Runtime: OpenJDK Runtime Environment
JVM: OpenJDK 64-Bit Server VM
Default Encoding: UTF-8
Language: en
Country: SG
--></g></svg>