<?xml version="1.0" encoding="UTF-8" standalone="no"?><svg xmlns="http://www.w3.org/2000/svg" xmlns:xlink="http://www.w3.org/1999/xlink" contentScriptType="application/ecmascript" contentStyleType="text/css" height="398px" preserveAspectRatio="none" style="width:621px;height:398px;background:#FFFFFF;" version="1.1" viewBox="0 0 621 398" width="621px" zoomAndPan="magnify"><defs><filter height="300%" id="f1pf4xnjkol8h7" width="300%" x="-1" y="-1"><feGaussianBlur result="blurOut" stdDeviation="2.0"/><feColorMatrix in="blurOut" result="blurOut2" type="matrix" values="0 0 0 0 0 0 0 0 0 0 0 0 0 0 0 0 0 0 .4 0"/><feOffset dx="4.0" dy="4.0" in="blurOut2" result="blurOut3"/><feBlend in="SourceGraphic" in2="blurOut3" mode="normal"/></filter></defs><g><line style="stroke:#A80036;stroke-width:1.0;stroke-dasharray:5.0,5.0;" x1="50" x2="50" y1="88.4883" y2="313.6621"/><line style="stroke:#A80036;stroke-width:1.0;stroke-dasharray:5.0,5.0;" x1="127" x2="127" y1="88.4883" y2="313.6621"/><line style="stroke:#A80036;stroke-width:1.0;stroke-dasharray:5.0,5.0;" x1="194" x2="194" y1="88.4883" y2="313.6621"/><line style="stroke:#A80036;stroke-width:1.0;stroke-dasharray:5.0,5.0;" x1="269" x2="269" y1="88.4883" y2="313.6621"/><line style="stroke:#A80036;stroke-width:1.0;stroke-dasharray:5.0,5.0;" x1="330" x2="330" y1="88.4883" y2="313.6621"/><line style="stroke:#A80036;stroke-width:1.0;stroke-dasharray:5.0,5.0;" x1="396" x2="396" y1="88.4883" y2="313.6621"/><line style="stroke:#A80036;stroke-width:1.0;stroke-dasharray:5.0,5.0;" x1="490" x2="490" y1="88.4883" y2="313.6621"/><line style="stroke:#A80036;stroke-width:1.0;stroke-dasharray:5.0,5.0;" x1="581" x2="581" y1="88.4883" y2="313.6621"/><rect fill="#FEFECE" filter="url(#f1pf4xnjkol8h7)" height="30.4883" style="stroke:#A80036;stroke-width:1.5;" width="87" x="5" y="53"/><text fill="#000000" font-family="sans-serif" font-size="14" lengthAdjust="spacing" textLength="73" x="12" y="73.5352">Participant</text><rect fill="#FEFECE" filter="url(#f1pf4xnjkol8h7)" height="30.4883" style="stroke:#A80036;stroke-width:1.5;" width="87" x="5" y="312.6621"/><text fill="#000000" font-family="sans-serif" font-size="14" lengthAdjust="spacing" textLength="73" x="12" y="333.1973">Participant</text><text fill="#000000" font-family="sans-serif" font-size="14" lengthAdjust="spacing" textLength="37" x="106" y="85.5352">Actor</text><ellipse cx="127.5" cy="15" fill="#FEFECE" filter="url(#f1pf4xnjkol8h7)" rx="8" ry="8" style="stroke:#A80036;stroke-width:2.0;"/><path d="M127.5,23 L127.5,50 M114.5,31 L140.5,31 M127.5,50 L114.5,65 M127.5,50 L140.5,65 " fill="none" filter="url(#f1pf4xnjkol8h7)" style="stroke:#A80036;stroke-width:2.0;"/><text fill="#000000" font-family="sans-serif" font-size="14" lengthAdjust="spacing" textLength="37" x="106" y="326.1973">Actor</text><ellipse cx="127.5" cy="339.1504" fill="#FEFECE" filter="url(#f1pf4xnjkol8h7)" rx="8" ry="8" style="stroke:#A80036;stroke-width:2.0;"/><path d="M127.5,347.1504 L127.5,374.1504 M114.5,355.1504 L140.5,355.1504 M127.5,374.1504 L114.5,389.1504 M127.5,374.1504 L140.5,389.1504 " fill="none" filter="url(#f1pf4xnjkol8h7)" style="stroke:#A80036;stroke-width:2.0;"/><text fill="#000000" font-family="sans-serif" font-size="14" lengthAdjust="spacing" textLength="65" x="159" y="85.5352">Boundary</text><path d="M174,44 L174,68 M174,56 L191,56 " fill="none" filter="url(#f1pf4xnjkol8h7)" style="stroke:#A80036;stroke-width:2.0;"/><ellipse cx="203" cy="56" fill="#FEFECE" filter="url(#f1pf4xnjkol8h7)" rx="12" ry="12" style="stroke:#A80036;stroke-width:2.0;"/><text fill="#000000" font-family="sans-serif" font-size="14" lengthAdjust="spacing" textLength="65" x="159" y="326.1973">Boundary</text><path d="M174,333.1504 L174,357.1504 M174,345.1504 L191,345.1504 " fill="none" filter="url(#f1pf4xnjkol8h7)" style="stroke:#A80036;stroke-width:2.0;"/><ellipse cx="203" cy="345.1504" fill="#FEFECE" filter="url(#f1pf4xnjkol8h7)" rx="12" ry="12" style="stroke:#A80036;stroke-width:2.0;"/><text fill="#000000" font-family="sans-serif" font-size="14" lengthAdjust="spacing" textLength="52" x="240" y="85.5352">Control</text><ellipse cx="269" cy="56" fill="#FEFECE" filter="url(#f1pf4xnjkol8h7)" rx="12" ry="12" style="stroke:#A80036;stroke-width:2.0;"/><polygon fill="#A80036" points="265,44,271,39,269,44,271,49,265,44" style="stroke:#A80036;stroke-width:1.0;"/><text fill="#000000" font-family="sans-serif" font-size="14" lengthAdjust="spacing" textLength="52" x="240" y="326.1973">Control</text><ellipse cx="269" cy="345.1504" fill="#FEFECE" filter="url(#f1pf4xnjkol8h7)" rx="12" ry="12" style="stroke:#A80036;stroke-width:2.0;"/><polygon fill="#A80036" points="265,333.1504,271,328.1504,269,333.1504,271,338.1504,265,333.1504" style="stroke:#A80036;stroke-width:1.0;"/><text fill="#000000" font-family="sans-serif" font-size="14" lengthAdjust="spacing" textLength="38" x="308" y="85.5352">Entity</text><ellipse cx="330" cy="56" fill="#FEFECE" filter="url(#f1pf4xnjkol8h7)" rx="12" ry="12" style="stroke:#A80036;stroke-width:2.0;"/><line style="stroke:#A80036;stroke-width:2.0;" x1="318" x2="342" y1="70" y2="70"/><text fill="#000000" font-family="sans-serif" font-size="14" lengthAdjust="spacing" textLength="38" x="308" y="326.1973">Entity</text><ellipse cx="330" cy="345.1504" fill="#FEFECE" filter="url(#f1pf4xnjkol8h7)" rx="12" ry="12" style="stroke:#A80036;stroke-width:2.0;"/><line style="stroke:#A80036;stroke-width:2.0;" x1="318" x2="342" y1="359.1504" y2="359.1504"/><text fill="#000000" font-family="sans-serif" font-size="14" lengthAdjust="spacing" textLength="63" x="362" y="85.5352">Database</text><path d="M378.5,36 C378.5,26 396.5,26 396.5,26 C396.5,26 414.5,26 414.5,36 L414.5,62 C414.5,72 396.5,72 396.5,72 C396.5,72 378.5,72 378.5,62 L378.5,36 " fill="#FEFECE" filter="url(#f1pf4xnjkol8h7)" style="stroke:#000000;stroke-width:1.5;"/><path d="M378.5,36 C378.5,46 396.5,46 396.5,46 C396.5,46 414.5,46 414.5,36 " fill="none" style="stroke:#000000;stroke-width:1.5;"/><text fill="#000000" font-family="sans-serif" font-size="14" lengthAdjust="spacing" textLength="63" x="362" y="326.1973">Database</text><path d="M378.5,339.1504 C378.5,329.1504 396.5,329.1504 396.5,329.1504 C396.5,329.1504 414.5,329.1504 414.5,339.1504 L414.5,365.1504 C414.5,375.1504 396.5,375.1504 396.5,375.1504 C396.5,375.1504 378.5,375.1504 378.5,365.1504 L378.5,339.1504 " fill="#FEFECE" filter="url(#f1pf4xnjkol8h7)" style="stroke:#000000;stroke-width:1.5;"/><path d="M378.5,339.1504 C378.5,349.1504 396.5,349.1504 396.5,349.1504 C396.5,349.1504 414.5,349.1504 414.5,339.1504 " fill="none" style="stroke:#000000;stroke-width:1.5;"/><rect fill="#FEFECE" filter="url(#f1pf4xnjkol8h7)" height="30.4883" style="stroke:#A80036;stroke-width:1.5;" width="90" x="445" y="49"/><rect fill="#FEFECE" filter="url(#f1pf4xnjkol8h7)" height="30.4883" style="stroke:#A80036;stroke-width:1.5;" width="90" x="441" y="53"/><text fill="#000000" font-family="sans-serif" font-size="14" lengthAdjust="spacing" textLength="76" x="448" y="73.5352">Collections</text><rect fill="#FEFECE" filter="url(#f1pf4xnjkol8h7)" height="30.4883" style="stroke:#A80036;stroke-width:1.5;" width="90" x="445" y="312.6621"/><rect fill="#FEFECE" filter="url(#f1pf4xnjkol8h7)" height="30.4883" style="stroke:#A80036;stroke-width:1.5;" width="90" x="441" y="316.6621"/><text fill="#000000" font-family="sans-serif" font-size="14" lengthAdjust="spacing" textLength="76" x="448" y="337.1973">Collections</text><path d="M554,62 L609,62 C614,62 614,75.2441 614,75.2441 C614,75.2441 614,88.4883 609,88.4883 L554,88.4883 C549,88.4883 549,75.2441 549,75.2441 C549,75.2441 549,62 554,62 " fill="#FEFECE" filter="url(#f1pf4xnjkol8h7)" style="stroke:#A80036;stroke-width:2.0;"/><path d="M609,62 C604,62 604,75.2441 604,75.2441 C604,88.4883 609,88.4883 609,88.4883 " fill="none" style="stroke:#A80036;stroke-width:2.0;"/><text fill="#000000" font-family="sans-serif" font-size="14" lengthAdjust="spacing" textLength="45" x="554" y="80.5352">Queue</text><path d="M554,312.6621 L609,312.6621 C614,312.6621 614,325.9063 614,325.9063 C614,325.9063 614,339.1504 609,339.1504 L554,339.1504 C549,339.1504 549,325.9063 549,325.9063 C549,325.9063 549,312.6621 554,312.6621 " fill="#FEFECE" filter="url(#f1pf4xnjkol8h7)" style="stroke:#A80036;stroke-width:2.0;"/><path d="M609,312.6621 C604,312.6621 604,325.9063 604,325.9063 C604,339.1504 609,339.1504 609,339.1504 " fill="none" style="stroke:#A80036;stroke-width:2.0;"/><text fill="#000000" font-family="sans-serif" font-size="14" lengthAdjust="spacing" textLength="45" x="554" y="331.1973">Queue</text><polygon fill="#A80036" points="115.5,115.7988,125.5,119.7988,115.5,123.7988,119.5,119.7988" style="stroke:#A80036;stroke-width:1.0;"/><line style="stroke:#A80036;stroke-width:1.0;" x1="50.5" x2="121.5" y1="119.7988" y2="119.7988"/><text fill="#000000" font-family="sans-serif" font-size="13" lengthAdjust="spacing" textLength="52" x="57.5" y="115.0566">To actor</text><polygon fill="#A80036" points="182.5,145.1094,192.5,149.1094,182.5,153.1094,186.5,149.1094" style="stroke:#A80036;stroke-width:1.0;"/><line style="stroke:#A80036;stroke-width:1.0;" x1="50.5" x2="188.5" y1="149.1094" y2="149.1094"/><text fill="#000000" font-family="sans-serif" font-size="13" lengthAdjust="spacing" textLength="79" x="57.5" y="144.3672">To boundary</text><polygon fill="#A80036" points="257,174.4199,267,178.4199,257,182.4199,261,178.4199" style="stroke:#A80036;stroke-width:1.0;"/><line style="stroke:#A80036;stroke-width:1.0;" x1="50.5" x2="263" y1="178.4199" y2="178.4199"/><text fill="#000000" font-family="sans-serif" font-size="13" lengthAdjust="spacing" textLength="65" x="57.5" y="173.6777">To control</text><polygon fill="#A80036" points="318,203.7305,328,207.7305,318,211.7305,322,207.7305" style="stroke:#A80036;stroke-width:1.0;"/><line style="stroke:#A80036;stroke-width:1.0;" x1="50.5" x2="324" y1="207.7305" y2="207.7305"/><text fill="#000000" font-family="sans-serif" font-size="13" lengthAdjust="spacing" textLength="56" x="57.5" y="202.9883">To entity</text><polygon fill="#A80036" points="384.5,233.041,394.5,237.041,384.5,241.041,388.5,237.041" style="stroke:#A80036;stroke-width:1.0;"/><line style="stroke:#A80036;stroke-width:1.0;" x1="50.5" x2="390.5" y1="237.041" y2="237.041"/><text fill="#000000" font-family="sans-serif" font-size="13" lengthAdjust="spacing" textLength="76" x="57.5" y="232.2988">To database</text><polygon fill="#A80036" points="478,262.3516,488,266.3516,478,270.3516,482,266.3516" style="stroke:#A80036;stroke-width:1.0;"/><line style="stroke:#A80036;stroke-width:1.0;" x1="50.5" x2="484" y1="266.3516" y2="266.3516"/><text fill="#000000" font-family="sans-serif" font-size="13" lengthAdjust="spacing" textLength="89" x="57.5" y="261.6094">To collections</text><polygon fill="#A80036" points="569.5,291.6621,579.5,295.6621,569.5,299.6621,573.5,295.6621" style="stroke:#A80036;stroke-width:1.0;"/><line style="stroke:#A80036;stroke-width:1.0;" x1="50.5" x2="575.5" y1="295.6621" y2="295.6621"/><text fill="#000000" font-family="sans-serif" font-size="13" lengthAdjust="spacing" textLength="58" x="57.5" y="290.9199">To queue</text><!--MD5=[f7611f6412806d4a937716954064707e]
@startuml
participant Participant as Foo
actor       Actor       as Foo1
boundary    Boundary    as Foo2
control     Control     as Foo3
entity      Entity      as Foo4
database    Database    as Foo5
collections Collections as Foo6
queue       Queue       as Foo7
Foo -> Foo1 : To actor
Foo -> Foo2 : To boundary
Foo -> Foo3 : To control
Foo -> Foo4 : To entity
Foo -> Foo5 : To database
Foo -> Foo6 : To collections
Foo -> Foo7: To queue
@enduml

PlantUML version 1.2022.0(Wed Jan 12 00:16:42 SGT 2022)
(GPL source distribution)
Java Runtime: OpenJDK Runtime Environment
JVM: OpenJDK 64-Bit Server VM
Default Encoding: UTF-8
Language: en
Country: SG
--></g></svg>