<?xml version="1.0" encoding="UTF-8" standalone="no"?><svg xmlns="http://www.w3.org/2000/svg" xmlns:xlink="http://www.w3.org/1999/xlink" contentScriptType="application/ecmascript" contentStyleType="text/css" height="252px" preserveAspectRatio="none" style="width:362px;height:252px;background:#FFFFFF;" version="1.1" viewBox="0 0 362 252" width="362px" zoomAndPan="magnify"><defs><filter height="300%" id="f1qjih99q0ms9v" width="300%" x="-1" y="-1"><feGaussianBlur result="blurOut" stdDeviation="2.0"/><feColorMatrix in="blurOut" result="blurOut2" type="matrix" values="0 0 0 0 0 0 0 0 0 0 0 0 0 0 0 0 0 0 .4 0"/><feOffset dx="4.0" dy="4.0" in="blurOut2" result="blurOut3"/><feBlend in="SourceGraphic" in2="blurOut3" mode="normal"/></filter></defs><g><line style="stroke:#A80036;stroke-width:1.0;stroke-dasharray:5.0,5.0;" x1="146" x2="146" y1="40.4883" y2="209.041"/><line style="stroke:#A80036;stroke-width:1.0;stroke-dasharray:5.0,5.0;" x1="204" x2="204" y1="40.4883" y2="209.041"/><rect fill="#FEFECE" filter="url(#f1qjih99q0ms9v)" height="30.4883" style="stroke:#A80036;stroke-width:1.5;" width="47" x="121" y="5"/><text fill="#000000" font-family="sans-serif" font-size="14" lengthAdjust="spacing" textLength="33" x="128" y="25.5352">Alice</text><rect fill="#FEFECE" filter="url(#f1qjih99q0ms9v)" height="30.4883" style="stroke:#A80036;stroke-width:1.5;" width="47" x="121" y="208.041"/><text fill="#000000" font-family="sans-serif" font-size="14" lengthAdjust="spacing" textLength="33" x="128" y="228.5762">Alice</text><rect fill="#FEFECE" filter="url(#f1qjih99q0ms9v)" height="30.4883" style="stroke:#A80036;stroke-width:1.5;" width="40" x="182" y="5"/><text fill="#000000" font-family="sans-serif" font-size="14" lengthAdjust="spacing" textLength="26" x="189" y="25.5352">Bob</text><rect fill="#FEFECE" filter="url(#f1qjih99q0ms9v)" height="30.4883" style="stroke:#A80036;stroke-width:1.5;" width="40" x="182" y="208.041"/><text fill="#000000" font-family="sans-serif" font-size="14" lengthAdjust="spacing" textLength="26" x="189" y="228.5762">Bob</text><polygon fill="#A80036" points="192,72.7988,202,76.7988,192,80.7988,196,76.7988" style="stroke:#A80036;stroke-width:1.0;"/><line style="stroke:#A80036;stroke-width:1.0;" x1="146.5" x2="198" y1="76.7988" y2="76.7988"/><text fill="#000000" font-family="sans-serif" font-size="13" lengthAdjust="spacing" textLength="31" x="153.5" y="72.0566">hello</text><path d="M5,55.4883 L5,80.4883 L138,80.4883 L138,65.4883 L128,55.4883 L5,55.4883 " fill="#FBFB77" filter="url(#f1qjih99q0ms9v)" style="stroke:#A80036;stroke-width:1.0;"/><path d="M128,55.4883 L128,65.4883 L138,65.4883 L128,55.4883 " fill="#FBFB77" style="stroke:#A80036;stroke-width:1.0;"/><text fill="#000000" font-family="sans-serif" font-size="13" lengthAdjust="spacing" textLength="112" x="11" y="73.0566">this is a first note</text><polygon fill="#A80036" points="157.5,112.1094,147.5,116.1094,157.5,120.1094,153.5,116.1094" style="stroke:#A80036;stroke-width:1.0;"/><line style="stroke:#A80036;stroke-width:1.0;" x1="151.5" x2="203" y1="116.1094" y2="116.1094"/><text fill="#000000" font-family="sans-serif" font-size="13" lengthAdjust="spacing" textLength="16" x="163.5" y="111.3672">ok</text><path d="M209,94.7988 L209,119.7988 L353,119.7988 L353,104.7988 L343,94.7988 L209,94.7988 " fill="#FBFB77" filter="url(#f1qjih99q0ms9v)" style="stroke:#A80036;stroke-width:1.0;"/><path d="M343,94.7988 L343,104.7988 L353,104.7988 L343,94.7988 " fill="#FBFB77" style="stroke:#A80036;stroke-width:1.0;"/><text fill="#000000" font-family="sans-serif" font-size="13" lengthAdjust="spacing" textLength="123" x="215" y="112.3672">this is another note</text><line style="stroke:#A80036;stroke-width:1.0;" x1="204" x2="246" y1="164.2305" y2="164.2305"/><line style="stroke:#A80036;stroke-width:1.0;" x1="246" x2="246" y1="164.2305" y2="177.2305"/><line style="stroke:#A80036;stroke-width:1.0;" x1="205" x2="246" y1="177.2305" y2="177.2305"/><polygon fill="#A80036" points="215,173.2305,205,177.2305,215,181.2305,211,177.2305" style="stroke:#A80036;stroke-width:1.0;"/><text fill="#000000" font-family="sans-serif" font-size="13" lengthAdjust="spacing" textLength="84" x="211" y="159.4883">I am thinking</text><path d="M52,134.1094 L52,189.1094 L195,189.1094 L195,144.1094 L185,134.1094 L52,134.1094 " fill="#FBFB77" filter="url(#f1qjih99q0ms9v)" style="stroke:#A80036;stroke-width:1.0;"/><path d="M185,134.1094 L185,144.1094 L195,144.1094 L185,134.1094 " fill="#FBFB77" style="stroke:#A80036;stroke-width:1.0;"/><text fill="#000000" font-family="sans-serif" font-size="13" lengthAdjust="spacing" textLength="39" x="58" y="151.6777">a note</text><text fill="#000000" font-family="sans-serif" font-size="13" lengthAdjust="spacing" textLength="122" x="58" y="166.9883">can also be defined</text><text fill="#000000" font-family="sans-serif" font-size="13" lengthAdjust="spacing" textLength="98" x="58" y="182.2988">on several lines</text><!--MD5=[f6a6a920a595e5ae0a0af4406d622a81]
@startuml
Alice->Bob : hello
note left: this is a first note

Bob->Alice : ok
note right: this is another note

Bob->Bob : I am thinking
note left
a note
can also be defined
on several lines
end note
@enduml

PlantUML version 1.2022.0(Wed Jan 12 00:16:42 SGT 2022)
(GPL source distribution)
Java Runtime: OpenJDK Runtime Environment
JVM: OpenJDK 64-Bit Server VM
Default Encoding: UTF-8
Language: en
Country: SG
--></g></svg>