<?xml version="1.0" encoding="UTF-8" standalone="no"?><svg xmlns="http://www.w3.org/2000/svg" xmlns:xlink="http://www.w3.org/1999/xlink" contentScriptType="application/ecmascript" contentStyleType="text/css" height="109px" preserveAspectRatio="none" style="width:509px;height:109px;background:#FFFFFF;" version="1.1" viewBox="0 0 509 109" width="509px" zoomAndPan="magnify"><defs><filter height="300%" id="f1wgjbcqvs4uwq" width="300%" x="-1" y="-1"><feGaussianBlur result="blurOut" stdDeviation="2.0"/><feColorMatrix in="blurOut" result="blurOut2" type="matrix" values="0 0 0 0 0 0 0 0 0 0 0 0 0 0 0 0 0 0 .4 0"/><feOffset dx="4.0" dy="4.0" in="blurOut2" result="blurOut3"/><feBlend in="SourceGraphic" in2="blurOut3" mode="normal"/></filter></defs><g><!--MD5=[1b37e65ee89f4a9570036382ccdfd466]
entity RolesAPI--><rect fill="#FEFECE" filter="url(#f1wgjbcqvs4uwq)" height="46.4883" style="stroke:#A80036;stroke-width:1.5;" width="182" x="313" y="49.26"/><rect fill="#FEFECE" height="10" style="stroke:#A80036;stroke-width:1.5;" width="15" x="475" y="54.26"/><rect fill="#FEFECE" height="2" style="stroke:#A80036;stroke-width:1.5;" width="4" x="473" y="56.26"/><rect fill="#FEFECE" height="2" style="stroke:#A80036;stroke-width:1.5;" width="4" x="473" y="60.26"/><text fill="#000000" font-family="sans-serif" font-size="14" lengthAdjust="spacing" textLength="142" x="328" y="82.7952">/api/1.1/user/roles/</text><!--MD5=[62b36487eb3886e110012d39c609da20]
entity foo-service--><rect fill="#FEFECE" filter="url(#f1wgjbcqvs4uwq)" height="46.4883" style="stroke:#A80036;stroke-width:1.5;" width="118" x="7" y="49.26"/><rect fill="#FEFECE" height="10" style="stroke:#A80036;stroke-width:1.5;" width="15" x="105" y="54.26"/><rect fill="#FEFECE" height="2" style="stroke:#A80036;stroke-width:1.5;" width="4" x="103" y="56.26"/><rect fill="#FEFECE" height="2" style="stroke:#A80036;stroke-width:1.5;" width="4" x="103" y="60.26"/><text fill="#000000" font-family="sans-serif" font-size="14" lengthAdjust="spacing" textLength="78" x="22" y="82.7952">foo-service</text><!--MD5=[5eb6f39e4a46d5613d505a5c04031a47]
entity bar-service--><rect fill="#FEFECE" filter="url(#f1wgjbcqvs4uwq)" height="46.4883" style="stroke:#A80036;stroke-width:1.5;" width="118" x="160" y="49.26"/><rect fill="#FEFECE" height="10" style="stroke:#A80036;stroke-width:1.5;" width="15" x="258" y="54.26"/><rect fill="#FEFECE" height="2" style="stroke:#A80036;stroke-width:1.5;" width="4" x="256" y="56.26"/><rect fill="#FEFECE" height="2" style="stroke:#A80036;stroke-width:1.5;" width="4" x="256" y="60.26"/><text fill="#000000" font-family="sans-serif" font-size="14" lengthAdjust="spacing" textLength="78" x="175" y="82.7952">bar-service</text><!--MD5=[7455610f207aed85cff8dbeda9170b03]
link foo-service to RolesAPI--><path d="M97.46,49.22 C115.06,37.78 137.93,25.16 160.5,19.26 C211.24,6 227.1,8.85 278.5,19.26 C305.45,24.72 333.8,36.15 356.73,47 " fill="none" id="foo-service-to-RolesAPI" style="stroke:#A80036;stroke-width:1.0;"/><polygon fill="#A80036" points="361.24,49.16,354.8441,41.6705,356.7286,47.0042,351.3949,48.8887,361.24,49.16" style="stroke:#A80036;stroke-width:1.0;"/><!--MD5=[d7b800cf1e2889c8251096585c4fc98d]
link bar-service to RolesAPI--><path d="M278.26,72.26 C288.02,72.26 297.78,72.26 307.54,72.26 " fill="none" id="bar-service-to-RolesAPI" style="stroke:#A80036;stroke-width:1.0;"/><polygon fill="#A80036" points="312.64,72.26,303.64,68.26,307.64,72.26,303.64,76.26,312.64,72.26" style="stroke:#A80036;stroke-width:1.0;"/><!--MD5=[d9494a9342e73e73d17bb3f6d411d4e9]
@startuml
[/api/1.1/user/roles/] as RolesAPI
[foo-service] -> RolesAPI
[bar-service] -> RolesAPI
@enduml

PlantUML version 1.2022.0(Wed Jan 12 00:16:42 SGT 2022)
(GPL source distribution)
Java Runtime: OpenJDK Runtime Environment
JVM: OpenJDK 64-Bit Server VM
Default Encoding: UTF-8
Language: en
Country: SG
--></g></svg>