<?xml version="1.0" encoding="UTF-8" standalone="no"?><svg xmlns="http://www.w3.org/2000/svg" xmlns:xlink="http://www.w3.org/1999/xlink" contentScriptType="application/ecmascript" contentStyleType="text/css" height="246px" preserveAspectRatio="none" style="width:424px;height:246px;background:#FFFFFF;" version="1.1" viewBox="0 0 424 246" width="424px" zoomAndPan="magnify"><defs><filter height="300%" id="fjpbtjpj1mr4b" width="300%" x="-1" y="-1"><feGaussianBlur result="blurOut" stdDeviation="2.0"/><feColorMatrix in="blurOut" result="blurOut2" type="matrix" values="0 0 0 0 0 0 0 0 0 0 0 0 0 0 0 0 0 0 .4 0"/><feOffset dx="4.0" dy="4.0" in="blurOut2" result="blurOut3"/><feBlend in="SourceGraphic" in2="blurOut3" mode="normal"/></filter></defs><g><!--MD5=[fb97520b62ba04518e1874517745a826]
cluster Foo service--><polygon fill="#FFFFFF" filter="url(#fjpbtjpj1mr4b)" points="16,6,103,6,110,28.4883,407,28.4883,407,103,16,103,16,6" style="stroke:#000000;stroke-width:1.5;"/><line style="stroke:#000000;stroke-width:1.5;" x1="16" x2="110" y1="28.4883" y2="28.4883"/><text fill="#000000" font-family="sans-serif" font-size="14" font-weight="bold" lengthAdjust="spacing" textLength="81" x="20" y="21.5352">Foo service</text><!--MD5=[907db7f2d9010a3dae5a2a787188efc9]
cluster foo-db--><path d="M74,137 C74,127 231.5,127 231.5,127 C231.5,127 389,127 389,137 L389,229 C389,239 231.5,239 231.5,239 C231.5,239 74,239 74,229 L74,137 " fill="#FFFFFF" filter="url(#fjpbtjpj1mr4b)" style="stroke:#000000;stroke-width:1.5;"/><path d="M74,137 C74,147 231.5,147 231.5,147 C231.5,147 389,147 389,137 " fill="none" style="stroke:#000000;stroke-width:1.5;"/><text fill="#000000" font-family="sans-serif" font-size="14" font-weight="bold" lengthAdjust="spacing" textLength="51" x="206" y="162.5352">foo-db</text><!--MD5=[dbd36038b9e3e1a8408bdb83e237f53b]
entity foo.A--><rect fill="#FEFECE" filter="url(#fjpbtjpj1mr4b)" height="46.4883" style="stroke:#A80036;stroke-width:1.5;" width="152" x="239" y="41"/><rect fill="#FEFECE" height="10" style="stroke:#A80036;stroke-width:1.5;" width="15" x="371" y="46"/><rect fill="#FEFECE" height="2" style="stroke:#A80036;stroke-width:1.5;" width="4" x="369" y="48"/><rect fill="#FEFECE" height="2" style="stroke:#A80036;stroke-width:1.5;" width="4" x="369" y="52"/><text fill="#000000" font-family="sans-serif" font-size="14" lengthAdjust="spacing" textLength="112" x="254" y="74.5352">First component</text><!--MD5=[8162403d8e72c3e7dc55e40c603905d6]
entity foo.B--><rect fill="#FEFECE" filter="url(#fjpbtjpj1mr4b)" height="46.4883" style="stroke:#A80036;stroke-width:1.5;" width="172" x="32" y="41"/><rect fill="#FEFECE" height="10" style="stroke:#A80036;stroke-width:1.5;" width="15" x="184" y="46"/><rect fill="#FEFECE" height="2" style="stroke:#A80036;stroke-width:1.5;" width="4" x="182" y="48"/><rect fill="#FEFECE" height="2" style="stroke:#A80036;stroke-width:1.5;" width="4" x="182" y="52"/><text fill="#000000" font-family="sans-serif" font-size="14" lengthAdjust="spacing" textLength="132" x="47" y="74.5352">Second component</text><!--MD5=[8b89304651bceae3efeb839b55f554e2]
entity foo.table.A--><rect fill="#FEFECE" filter="url(#fjpbtjpj1mr4b)" height="46.4883" style="stroke:#A80036;stroke-width:1.5;" width="115" x="257.5" y="177"/><rect fill="#FEFECE" height="10" style="stroke:#A80036;stroke-width:1.5;" width="15" x="352.5" y="182"/><rect fill="#FEFECE" height="2" style="stroke:#A80036;stroke-width:1.5;" width="4" x="350.5" y="184"/><rect fill="#FEFECE" height="2" style="stroke:#A80036;stroke-width:1.5;" width="4" x="350.5" y="188"/><text fill="#000000" font-family="sans-serif" font-size="14" lengthAdjust="spacing" textLength="75" x="272.5" y="210.5352">some table</text><!--MD5=[64c0349afa1ced0290fa5aba6c66f314]
entity foo.table.B--><rect fill="#FEFECE" filter="url(#fjpbtjpj1mr4b)" height="46.4883" style="stroke:#A80036;stroke-width:1.5;" width="132" x="90" y="177"/><rect fill="#FEFECE" height="10" style="stroke:#A80036;stroke-width:1.5;" width="15" x="202" y="182"/><rect fill="#FEFECE" height="2" style="stroke:#A80036;stroke-width:1.5;" width="4" x="200" y="184"/><rect fill="#FEFECE" height="2" style="stroke:#A80036;stroke-width:1.5;" width="4" x="200" y="188"/><text fill="#000000" font-family="sans-serif" font-size="14" lengthAdjust="spacing" textLength="92" x="105" y="210.5352">another table</text><!--MD5=[d5176f65a767962af07810a163afc6ea]
link foo.A to foo.table.A--><path d="M315,87.13 C315,110.31 315,146.75 315,171.7 " fill="none" id="foo.A-to-foo.table.A" style="stroke:#A80036;stroke-width:1.0;"/><polygon fill="#A80036" points="315,176.84,319,167.84,315,171.84,311,167.84,315,176.84" style="stroke:#A80036;stroke-width:1.0;"/><!--MD5=[bc053808526d31dc0c06202bab2fc09a]
@startuml
package "Foo service" {
    [First component] as foo.A
    [Second component] as foo.B
}

database "foo-db" {
    [some table] as foo.table.A
    [another table] as foo.table.B
}

foo.A - -> foo.table.A
@enduml

PlantUML version 1.2022.0(Wed Jan 12 00:16:42 SGT 2022)
(GPL source distribution)
Java Runtime: OpenJDK Runtime Environment
JVM: OpenJDK 64-Bit Server VM
Default Encoding: UTF-8
Language: en
Country: SG
--></g></svg>