<?xml version="1.0" encoding="UTF-8" standalone="no"?><svg xmlns="http://www.w3.org/2000/svg" xmlns:xlink="http://www.w3.org/1999/xlink" contentScriptType="application/ecmascript" contentStyleType="text/css" height="329px" preserveAspectRatio="none" style="width:316px;height:329px;background:#FFFFFF;" version="1.1" viewBox="0 0 316 329" width="316px" zoomAndPan="magnify"><defs><filter height="300%" id="f1rxmxnfkcwb40" width="300%" x="-1" y="-1"><feGaussianBlur result="blurOut" stdDeviation="2.0"/><feColorMatrix in="blurOut" result="blurOut2" type="matrix" values="0 0 0 0 0 0 0 0 0 0 0 0 0 0 0 0 0 0 .4 0"/><feOffset dx="4.0" dy="4.0" in="blurOut2" result="blurOut3"/><feBlend in="SourceGraphic" in2="blurOut3" mode="normal"/></filter></defs><g><rect fill="#ADD8E6" height="317.9082" style="stroke:#A80036;stroke-width:1.0;" width="221" x="89.5" y="6"/><text fill="#000000" font-family="sans-serif" font-size="13" font-weight="bold" lengthAdjust="spacing" textLength="112" x="144" y="18.5684">Internal services</text><rect fill="#FFFFFF" filter="url(#f1rxmxnfkcwb40)" height="99.6211" style="stroke:#A80036;stroke-width:1.0;" width="10" x="136" y="119.7988"/><rect fill="#FFFFFF" filter="url(#f1rxmxnfkcwb40)" height="14" style="stroke:#A80036;stroke-width:1.0;" width="10" x="256" y="191.4199"/><line style="stroke:#A80036;stroke-width:1.0;stroke-dasharray:5.0,5.0;" x1="28" x2="28" y1="88.4883" y2="237.4199"/><line style="stroke:#A80036;stroke-width:1.0;stroke-dasharray:5.0,5.0;" x1="140.5" x2="140.5" y1="88.4883" y2="237.4199"/><line style="stroke:#A80036;stroke-width:1.0;stroke-dasharray:5.0,5.0;" x1="260.5" x2="260.5" y1="88.4883" y2="237.4199"/><text fill="#000000" font-family="sans-serif" font-size="14" lengthAdjust="spacing" textLength="40" x="5" y="85.5352">Client</text><ellipse cx="28" cy="15" fill="#FEFECE" filter="url(#f1rxmxnfkcwb40)" rx="8" ry="8" style="stroke:#A80036;stroke-width:2.0;"/><path d="M28,23 L28,50 M15,31 L41,31 M28,50 L15,65 M28,50 L41,65 " fill="none" filter="url(#f1rxmxnfkcwb40)" style="stroke:#A80036;stroke-width:2.0;"/><text fill="#000000" font-family="sans-serif" font-size="14" lengthAdjust="spacing" textLength="40" x="5" y="249.9551">Client</text><ellipse cx="28" cy="262.9082" fill="#FEFECE" filter="url(#f1rxmxnfkcwb40)" rx="8" ry="8" style="stroke:#A80036;stroke-width:2.0;"/><path d="M28,270.9082 L28,297.9082 M15,278.9082 L41,278.9082 M28,297.9082 L15,312.9082 M28,297.9082 L41,312.9082 " fill="none" filter="url(#f1rxmxnfkcwb40)" style="stroke:#A80036;stroke-width:2.0;"/><rect fill="#FEFECE" filter="url(#f1rxmxnfkcwb40)" height="30.4883" style="stroke:#A80036;stroke-width:1.5;" width="91" x="93.5" y="53"/><text fill="#000000" font-family="sans-serif" font-size="14" lengthAdjust="spacing" textLength="77" x="100.5" y="73.5352">Foo service</text><rect fill="#FEFECE" filter="url(#f1rxmxnfkcwb40)" height="30.4883" style="stroke:#A80036;stroke-width:1.5;" width="91" x="93.5" y="236.4199"/><text fill="#000000" font-family="sans-serif" font-size="14" lengthAdjust="spacing" textLength="77" x="100.5" y="256.9551">Foo service</text><rect fill="#FEFECE" filter="url(#f1rxmxnfkcwb40)" height="30.4883" style="stroke:#A80036;stroke-width:1.5;" width="87" x="215.5" y="53"/><text fill="#000000" font-family="sans-serif" font-size="14" lengthAdjust="spacing" textLength="73" x="222.5" y="73.5352">Bar service</text><rect fill="#FEFECE" filter="url(#f1rxmxnfkcwb40)" height="30.4883" style="stroke:#A80036;stroke-width:1.5;" width="87" x="215.5" y="236.4199"/><text fill="#000000" font-family="sans-serif" font-size="14" lengthAdjust="spacing" textLength="73" x="222.5" y="256.9551">Bar service</text><rect fill="#FFFFFF" filter="url(#f1rxmxnfkcwb40)" height="99.6211" style="stroke:#A80036;stroke-width:1.0;" width="10" x="136" y="119.7988"/><rect fill="#FFFFFF" filter="url(#f1rxmxnfkcwb40)" height="14" style="stroke:#A80036;stroke-width:1.0;" width="10" x="256" y="191.4199"/><polygon fill="#A80036" points="124,115.7988,134,119.7988,124,123.7988,128,119.7988" style="stroke:#A80036;stroke-width:1.0;"/><line style="stroke:#A80036;stroke-width:1.0;" x1="28" x2="130" y1="119.7988" y2="119.7988"/><text fill="#000000" font-family="sans-serif" font-size="13" font-weight="bold" lengthAdjust="spacing" textLength="89" x="35" y="115.0566">GET /foo/:id/</text><line style="stroke:#A80036;stroke-width:1.0;" x1="146" x2="188" y1="149.1094" y2="149.1094"/><line style="stroke:#A80036;stroke-width:1.0;" x1="188" x2="188" y1="149.1094" y2="162.1094"/><line style="stroke:#A80036;stroke-width:1.0;" x1="147" x2="188" y1="162.1094" y2="162.1094"/><polygon fill="#A80036" points="157,158.1094,147,162.1094,157,166.1094,153,162.1094" style="stroke:#A80036;stroke-width:1.0;"/><text fill="#000000" font-family="sans-serif" font-size="13" lengthAdjust="spacing" textLength="89" x="153" y="144.3672">Do something</text><polygon fill="#A80036" points="244,187.4199,254,191.4199,244,195.4199,248,191.4199" style="stroke:#A80036;stroke-width:1.0;"/><line style="stroke:#A80036;stroke-width:1.0;" x1="146" x2="250" y1="191.4199" y2="191.4199"/><text fill="#000000" font-family="sans-serif" font-size="13" font-weight="bold" lengthAdjust="spacing" textLength="91" x="153" y="186.6777">GET /bar/:id/</text><polygon fill="#A80036" points="157,201.4199,147,205.4199,157,209.4199,153,205.4199" style="stroke:#A80036;stroke-width:1.0;"/><line style="stroke:#A80036;stroke-width:1.0;stroke-dasharray:2.0,2.0;" x1="151" x2="260" y1="205.4199" y2="205.4199"/><polygon fill="#A80036" points="39,215.4199,29,219.4199,39,223.4199,35,219.4199" style="stroke:#A80036;stroke-width:1.0;"/><line style="stroke:#A80036;stroke-width:1.0;stroke-dasharray:2.0,2.0;" x1="33" x2="140" y1="219.4199" y2="219.4199"/><!--MD5=[bc9dec3f86a137760b3f424f51878131]
@startuml
actor Client as Client
box "Internal services" #LightBlue
    participant "Foo service" as Foo
    participant "Bar service" as Bar
end box

Client -> Foo ++ : **GET /foo/:id/**
    Foo -> Foo : Do something
    Foo -> Bar ++ : **GET /bar/:id/**
    Foo <- - Bar - -
Client <- - Foo - -
@enduml

PlantUML version 1.2022.0(Wed Jan 12 00:16:42 SGT 2022)
(GPL source distribution)
Java Runtime: OpenJDK Runtime Environment
JVM: OpenJDK 64-Bit Server VM
Default Encoding: UTF-8
Language: en
Country: SG
--></g></svg>